<svg id="icon-mobile" xmlns="http://www.w3.org/2000/svg" width="32" height="32" viewBox="0 0 32 32">
  <path id="Path_457" data-name="Path 457" d="M0,0H32V32H0Z" fill="none"/>
  <path id="Path_458" data-name="Path 458" d="M24.392,1H10.982A2.684,2.684,0,0,0,8.3,3.671V7.677h2.682V5.006H24.392V26.372H10.982V23.7H8.3v4.006a2.684,2.684,0,0,0,2.682,2.671H24.392a2.684,2.684,0,0,0,2.682-2.671V3.671A2.684,2.684,0,0,0,24.392,1ZM8.313,17.652l-3.42-3.405-1.7,1.7L8.3,21.03l9.642-9.6-1.7-1.7Z" transform="translate(0.992 0.311)" fill="#51a7fe"/>
</svg>
