<svg xmlns="http://www.w3.org/2000/svg" width="34" height="34" viewBox="0 0 34 34">
  <g id="icon-news" transform="translate(-50 -95)">
    <g id="拡声器のアイコンその4" transform="translate(51.816 18.625)">
      <path id="Path_476" data-name="Path 476" d="M67.89,321.805a2.658,2.658,0,0,1-1.06,1.2,2.4,2.4,0,0,1-.573.246l-.647-2.391H61.015l1.6,8.091a1.055,1.055,0,0,0,1.035.85h3a1.057,1.057,0,0,0,1.02-1.331l-1.121-4.141c.086-.024.174-.051.261-.084a3.635,3.635,0,0,0,1.668-1.255,4.455,4.455,0,0,0,.765-1.754c-.353-.067-.722-.129-1.1-.182A3.674,3.674,0,0,1,67.89,321.805Z" transform="translate(-56.139 -222.302)" fill="#fff"/>
      <path id="Path_477" data-name="Path 477" d="M109.4,79.25c-.844,0-2.2,1.44-2.791,2.027-.509.509-4.524,4.5-14.705,4.5V97.69c10.181,0,14.2,3.994,14.705,4.505.587.586,1.947,2.025,2.791,2.025a1.528,1.528,0,0,0,1.527-1.527V80.777A1.528,1.528,0,0,0,109.4,79.25Z" transform="translate(-84.562)" fill="#fff"/>
      <path id="Path_478" data-name="Path 478" d="M5.955,160.969a5.955,5.955,0,1,0,0,11.909Z" transform="translate(0 -75.189)" fill="#fff"/>
      <path id="Path_479" data-name="Path 479" d="M345.375,207.516v4.47a2.235,2.235,0,1,0,0-4.47Z" transform="translate(-317.775 -118.016)" fill="#fff"/>
    </g>
    <rect id="Rectangle_105" data-name="Rectangle 105" width="34" height="34" transform="translate(50 95)" fill="none"/>
  </g>
</svg>
