<svg xmlns="http://www.w3.org/2000/svg" width="54" height="54" viewBox="0 0 54 54">
  <g id="icon-apply" transform="translate(-80 -323)">
    <circle id="Ellipse_7" data-name="Ellipse 7" cx="27" cy="27" r="27" transform="translate(80 323)" fill="#ddffaf"/>
    <g id="person_add_black_24dp" transform="translate(89.356 332.527)">
      <path id="Path_438" data-name="Path 438" d="M0,0H34.946V34.946H0Z" fill="none"/>
      <path id="Path_439" data-name="Path 439" d="M21.385,15.649a5.824,5.824,0,1,0-5.824-5.824A5.823,5.823,0,0,0,21.385,15.649ZM8.28,12.737V8.368H5.368v4.368H1v2.912H5.368v4.368H8.28V15.649h4.368V12.737Zm13.1,5.824c-3.888,0-11.649,1.951-11.649,5.824V27.3h23.3V24.385C33.034,20.512,25.273,18.561,21.385,18.561Z" transform="translate(0.456 1.824)" fill="#4eb531"/>
    </g>
  </g>
</svg>
