<svg xmlns="http://www.w3.org/2000/svg" xmlns:xlink="http://www.w3.org/1999/xlink" width="44" height="44" viewBox="0 0 44 44">
  <defs>
    <clipPath id="clip-path">
      <rect id="Rectangle_60" data-name="Rectangle 60" width="24" height="25" transform="translate(0 0)" fill="#f9a01a"/>
    </clipPath>
  </defs>
  <g id="icon-post" transform="translate(-54 -286)">
    <circle id="Ellipse_10" data-name="Ellipse 10" cx="22" cy="22" r="22" transform="translate(54 286)" fill="#fffbc5"/>
    <g id="Group_418" data-name="Group 418" transform="translate(65 295)">
      <g id="Group_417" data-name="Group 417" transform="translate(0 0)" clip-path="url(#clip-path)">
        <path id="Path_446" data-name="Path 446" d="M21.644,8.247C19.478,3.208,15.992-.631,14.228.087,11.233,1.3,16.012,7.149,1.306,13.128.036,13.644-.286,15.71.245,16.946s2.268,2.465,3.539,1.948c.219-.089,1.027-.349,1.027-.349.907,1.217,1.857.5,2.193,1.269.4.93,1.285,2.951,1.584,3.638s.978,1.323,1.471,1.136l2.8-1.067a.926.926,0,0,0,.6-1.264c-.211-.485-1.076-.627-1.322-1.193s-1.053-2.379-1.285-2.951c-.315-.777.354-1.409,1.327-1.511,6.694-.7,7.945,3.436,10.224,2.51,1.764-.717,1.4-5.826-.761-10.866m-.754,8.176c-.392.159-3.026-1.919-4.71-5.837s-1.472-7.5-1.08-7.657,2.961,2.347,4.644,6.264,1.538,7.07,1.146,7.229" transform="translate(0 0)" fill="#f9a01a"/>
      </g>
    </g>
  </g>
</svg>
