<svg xmlns="http://www.w3.org/2000/svg" xmlns:xlink="http://www.w3.org/1999/xlink" width="44" height="44" viewBox="0 0 44 44">
  <defs>
    <clipPath id="clip-path">
      <rect id="Rectangle_92" data-name="Rectangle 92" width="31.988" height="15.688" fill="#51a6ab"/>
    </clipPath>
  </defs>
  <g id="icon-case" transform="translate(-54 -178)">
    <circle id="Ellipse_7" data-name="Ellipse 7" cx="22" cy="22" r="22" transform="translate(54 178)" fill="#c1f1f0"/>
    <g id="Group_440" data-name="Group 440" transform="translate(60.006 192.655)">
      <g id="Group_439" data-name="Group 439" transform="translate(0 0)" clip-path="url(#clip-path)">
        <path id="Path_481" data-name="Path 481" d="M17.47,13.5a7.873,7.873,0,0,1-1.033-1.281H4.728a3.157,3.157,0,1,1,0-6.313H15.411A7.888,7.888,0,0,1,16,4.332H4.728a4.728,4.728,0,0,0,0,9.456H17.79c-.107-.1-.218-.189-.32-.291" transform="translate(0 -2.063)" fill="#51a6ab"/>
        <path id="Path_482" data-name="Path 482" d="M42.324,9.867h-.709l-.251-.242a5.845,5.845,0,1,0-.628.628l.243.251v.708l4.485,4.476L46.8,14.352Zm-5.382,0a4.036,4.036,0,1,1,4.037-4.037,4.031,4.031,0,0,1-4.037,4.037" transform="translate(-14.812 0)" fill="#51a6ab"/>
        <rect id="Rectangle_89" data-name="Rectangle 89" width="2.046" height="2.046" transform="translate(4.544 5.974)" fill="#51a6ab"/>
        <rect id="Rectangle_90" data-name="Rectangle 90" width="2.046" height="2.046" transform="translate(7.872 5.974)" fill="#51a6ab"/>
        <rect id="Rectangle_91" data-name="Rectangle 91" width="2.046" height="2.046" transform="translate(11.2 5.974)" fill="#51a6ab"/>
      </g>
    </g>
  </g>
</svg>
