<svg xmlns="http://www.w3.org/2000/svg" xmlns:xlink="http://www.w3.org/1999/xlink" width="44" height="44" viewBox="0 0 44 44">
  <defs>
    <clipPath id="clip-path">
      <rect id="Rectangle_93" data-name="Rectangle 93" width="26.991" height="26.436" fill="#4eb531"/>
    </clipPath>
  </defs>
  <g id="icon-license" transform="translate(-263 -178)">
    <circle id="Ellipse_9" data-name="Ellipse 9" cx="22" cy="22" r="22" transform="translate(263 178)" fill="#ddffaf"/>
    <g id="Group_442" data-name="Group 442" transform="translate(273.504 186.782)">
      <g id="Group_441" data-name="Group 441" transform="translate(0 0)" clip-path="url(#clip-path)">
        <path id="Path_483" data-name="Path 483" d="M21.149,14.54v9.252H2.644V5.287H9.279a8.325,8.325,0,0,1,.635-2.643H2.644A2.651,2.651,0,0,0,0,5.287V23.792a2.651,2.651,0,0,0,2.644,2.643h18.5a2.651,2.651,0,0,0,2.644-2.643V17.183Zm1.719-5.433A5.937,5.937,0,1,0,17.831,11.9a5.86,5.86,0,0,0,3.159-.925l4.124,4.124,1.877-1.877Zm-5.023.145a3.3,3.3,0,1,1,3.3-3.3,3.305,3.305,0,0,1-3.3,3.3M17.7,15.289l-5.179-5.184a.665.665,0,0,0-.963,0L6.375,15.289c-.265.274-.166.5.219.5H7.674v3.981c0,.288.013.522.533.522H10.72V16.3H13.35v3.993H15.99c.4,0,.407-.233.407-.522V15.788h1.08c.385,0,.484-.225.219-.5" transform="translate(0 0)" fill="#4eb531"/>
      </g>
    </g>
  </g>
</svg>
