<svg xmlns="http://www.w3.org/2000/svg" xmlns:xlink="http://www.w3.org/1999/xlink" width="44" height="44" viewBox="0 0 44 44">
  <defs>
    <clipPath id="clip-path">
      <rect id="Rectangle_86" data-name="Rectangle 86" width="25.313" height="25.313" fill="#4eb531"/>
    </clipPath>
  </defs>
  <g id="icon-chedule" transform="translate(-54 -178)">
    <circle id="Ellipse_7" data-name="Ellipse 7" cx="22" cy="22" r="22" transform="translate(54 178)" fill="#ddffaf"/>
    <g id="Group_434" data-name="Group 434" transform="translate(65 188.687)">
      <g id="Group_434-2" data-name="Group 434" transform="translate(0 0)" clip-path="url(#clip-path)">
        <path id="Path_467" data-name="Path 467" d="M21.854,11.31,19.37,9.877v-3.5q0-1.713,0-3.426c0-.4-.039-.441-.429-.441H2.936c-.4,0-.426.03-.426.438q0,8.62,0,17.241c0,.569.077.641.654.641q3.664,0,7.328-.005a.431.431,0,0,1,.408.213,7.308,7.308,0,0,0,2.511,2.25,2.2,2.2,0,0,1-.246.033q-5.784,0-11.568,0A1.537,1.537,0,0,1,0,21.725Q0,11.772,0,1.817A1.7,1.7,0,0,1,1.815,0Q11.025,0,20.235,0a1.566,1.566,0,0,1,1.641,1.633c-.025,3.154-.009,6.308-.01,9.462,0,.089-.01.178-.011.215" transform="translate(0 0)" fill="#4eb531" fill-rule="evenodd"/>
        <path id="Path_468" data-name="Path 468" d="M28.743,30.531a6.736,6.736,0,0,1-2.146.9,6.323,6.323,0,1,1,4.053-2.888.252.252,0,0,0,.05.376c.853.841,1.7,1.69,2.543,2.537a1.263,1.263,0,1,1-1.791,1.779q-1.241-1.239-2.481-2.481c-.072-.072-.147-.141-.229-.219m.776-5.267a4.258,4.258,0,1,0-4.307,4.247,4.248,4.248,0,0,0,4.307-4.247" transform="translate(-8.327 -8.32)" fill="#4eb531" fill-rule="evenodd"/>
        <path id="Path_469" data-name="Path 469" d="M14.18,8.186h5.894c.661,0,.867.211.868.876,0,.713-.207.924-.912.924q-5.88,0-11.76,0c-.343,0-.667-.061-.788-.407a1.209,1.209,0,0,1,.092-1.154A.7.7,0,0,1,8.2,8.185q2.989.006,5.978,0Z" transform="translate(-3.243 -3.597)" fill="#4eb531" fill-rule="evenodd"/>
        <path id="Path_470" data-name="Path 470" d="M14.158,13.8h5.951c.562,0,.8.237.806.8,0,.075,0,.15,0,.225a.689.689,0,0,1-.777.776q-2.064,0-4.127,0H8.321a.922.922,0,0,1-.864-1.426.7.7,0,0,1,.695-.377q3,.008,6.007,0Z" transform="translate(-3.216 -6.064)" fill="#4eb531" fill-rule="evenodd"/>
        <path id="Path_471" data-name="Path 471" d="M15.9,19.413c-.534.566-1.068,1.135-1.609,1.7a.367.367,0,0,1-.237.1q-2.96.008-5.919,0a.673.673,0,0,1-.7-.683,3.3,3.3,0,0,1,0-.477.658.658,0,0,1,.663-.633q3.913-.005,7.826,0c.008,0,.016.007-.021-.01" transform="translate(-3.26 -8.53)" fill="#4eb531" fill-rule="evenodd"/>
        <path id="Path_472" data-name="Path 472" d="M13.391,25.052c-.146.554-.285,1.1-.44,1.646a.252.252,0,0,1-.2.128c-1.551.007-3.1.005-4.652,0a.463.463,0,0,1-.056,0c-.452-.054-.639-.369-.619-1.048a.671.671,0,0,1,.668-.742c1.747-.007,3.494,0,5.241,0a.147.147,0,0,1,.055.015" transform="translate(-3.263 -11)" fill="#4eb531" fill-rule="evenodd"/>
        <path id="Path_473" data-name="Path 473" d="M24.845,26.745a2.785,2.785,0,0,1,1.766-1.817,4.2,4.2,0,0,1,1.64,0c.425.053.635.53.573,1.079a.809.809,0,0,1-.762.735c-1.056.016-2.113.005-3.217.005" transform="translate(-10.917 -10.917)" fill="#4eb531" fill-rule="evenodd"/>
      </g>
    </g>
  </g>
</svg>
