<svg xmlns="http://www.w3.org/2000/svg" width="44" height="44" viewBox="0 0 44 44">
  <g id="icon-save-check" transform="translate(-54 -286)">
    <circle id="Ellipse_10" data-name="Ellipse 10" cx="22" cy="22" r="22" transform="translate(54 286)" fill="#ffeace"/>
    <g id="task_black_24dp" transform="translate(61.006 293.006)">
      <g id="Group_443" data-name="Group 443">
        <path id="Path_484" data-name="Path 484" d="M0,0H29.987V29.987H0Z" fill="none"/>
      </g>
      <g id="Group_444" data-name="Group 444" transform="translate(4.998 2.499)">
        <path id="Path_485" data-name="Path 485" d="M16.495,2H6.5A2.5,2.5,0,0,0,4.012,4.5L4,24.491a2.5,2.5,0,0,0,2.486,2.5H21.493a2.506,2.506,0,0,0,2.5-2.5V9.5ZM12.671,21.992,8.248,17.568l1.762-1.762,2.649,2.649,5.3-5.3,1.762,1.762Zm2.574-11.245V3.874l6.872,6.872Z" transform="translate(-4 -2)" fill="#e67b44"/>
      </g>
    </g>
  </g>
</svg>
