<svg xmlns="http://www.w3.org/2000/svg" xmlns:xlink="http://www.w3.org/1999/xlink" width="54" height="54" viewBox="0 0 54 54">
  <defs>
    <clipPath id="clip-path">
      <rect id="Rectangle_55" data-name="Rectangle 55" width="31.097" height="31.128" fill="#f9a01a"/>
    </clipPath>
  </defs>
  <g id="icon-check" transform="translate(-226 -323)">
    <circle id="Ellipse_8" data-name="Ellipse 8" cx="27" cy="27" r="27" transform="translate(226 323)" fill="#fffbc5"/>
    <g id="Group_412" data-name="Group 412" transform="translate(237.451 334.436)">
      <g id="Group_411" data-name="Group 411" clip-path="url(#clip-path)">
        <path id="Path_436" data-name="Path 436" d="M36.184,21.587v7.48c.166.013.289.031.413.031q5.239,0,10.477,0a1.727,1.727,0,0,0,1.872-1.35,21.408,21.408,0,0,0,.427-3.062,13.429,13.429,0,0,0-.041-1.744c-.033-.837.343-1.211,1.183-1.251,1.231-.059,2.46-.15,3.689-.247a3.416,3.416,0,0,0,.78-.2,1.976,1.976,0,0,0,1.584-2.173c.009-2.144,0-4.287,0-6.431q0-5.09,0-10.179c0-.125-.011-.25-.018-.4H36.181c0,.873-.014,1.72.007,2.567a.51.51,0,0,1-.369.559c-.552.247-1.076.556-1.664.867v-.38q0-2.215,0-4.43C34.155.4,34.537,0,35.37,0Q46.38,0,57.389,0c.826,0,1.205.376,1.205,1.189q0,8.838-.01,17.675a11.968,11.968,0,0,1-.17,1.775,4.578,4.578,0,0,1-1.226,2.527q-3.2,3.334-6.42,6.646a4.324,4.324,0,0,1-3.3,1.314c-4-.019-8.007-.006-12.011-.006-.947,0-1.308-.364-1.307-1.312,0-2.044.006-4.089-.007-6.133a.733.733,0,0,1,.3-.646c.554-.441,1.09-.906,1.732-1.444" transform="translate(-27.498 0)" fill="#f9a01a" fill-rule="evenodd"/>
        <path id="Path_437" data-name="Path 437" d="M11.778,31.5a7.186,7.186,0,0,1,1.2,14.283,6.953,6.953,0,0,1-4.265-.631.488.488,0,0,0-.631.081q-1.848,1.574-3.717,3.124a2.6,2.6,0,1,1-3.343-3.968q1.851-1.57,3.723-3.118a.5.5,0,0,0,.2-.6,7.174,7.174,0,0,1,5.869-9.089c.35-.053.707-.059.963-.079m.074,2.428A4.766,4.766,0,1,0,16.61,38.7a4.786,4.786,0,0,0-4.758-4.772" transform="translate(0 -25.364)" fill="#f9a01a" fill-rule="evenodd"/>
      </g>
    </g>
  </g>
</svg>
