<svg xmlns="http://www.w3.org/2000/svg" xmlns:xlink="http://www.w3.org/1999/xlink" width="44" height="44" viewBox="0 0 44 44">
  <defs>
    <clipPath id="clip-path">
      <rect id="Rectangle_87" data-name="Rectangle 87" width="21.942" height="33.404" fill="#448fe5"/>
    </clipPath>
  </defs>
  <g id="icon-report" transform="translate(-158 -178)">
    <circle id="Ellipse_8" data-name="Ellipse 8" cx="22" cy="22" r="22" transform="translate(158 178)" fill="#d1efff" opacity="0.4"/>
    <g id="Group_436" data-name="Group 436" transform="translate(170.029 184.298)">
      <g id="Group_435" data-name="Group 435" transform="translate(0 0)" clip-path="url(#clip-path)">
        <path id="Path_474" data-name="Path 474" d="M12.479,20.832a2.689,2.689,0,1,1,.839-5.232,4.868,4.868,0,0,0-2.5-.692H9.79V7.652h1.028a12.072,12.072,0,0,1,6.209,1.72c.011-.081.028-.162.046-.245.024-.115.05-.23.066-.346a.816.816,0,0,1,.48-.65.32.32,0,0,0,.156-.167,1.76,1.76,0,0,0,.049-.987.4.4,0,0,0-.134-.237.5.5,0,0,1-.249-.38,5.518,5.518,0,0,1-.169-.933A2.5,2.5,0,0,1,17.4,4.314a2.359,2.359,0,0,1,1.5-1.379.857.857,0,0,0,.1-.04c.158-.065.191-.143.04-.26a4.174,4.174,0,0,1-.456-.381,1.931,1.931,0,0,0-1.54-.674.361.361,0,0,1-.066-.009A2.224,2.224,0,0,1,15.271.5a1.117,1.117,0,0,0-1.606-.27,4.732,4.732,0,0,0-.55.562c-.193.224-.182.23.051.428.107.091.21.186.315.279l-.04.039a1.074,1.074,0,0,0-.247-.18c-.112-.04-.286-.093-.355-.047a3.072,3.072,0,0,1-1.5.389,1.757,1.757,0,0,0-.516.13,9.124,9.124,0,0,0-1.054.491,2.129,2.129,0,0,0-.7.555,6.287,6.287,0,0,0-1.162,2.4.3.3,0,0,1-.1.164c-.447.371-.894.743-1.351,1.1a1.634,1.634,0,0,0-.511.7,2.843,2.843,0,0,1-.489.955A5.823,5.823,0,0,0,4.2,10.248a1.905,1.905,0,0,1-.3.7,6.469,6.469,0,0,0-.828,1.122,14.64,14.64,0,0,1-1.638,2.7,6.812,6.812,0,0,0-.69,1.2A1.6,1.6,0,0,0,.56,17.314a10.393,10.393,0,0,1,.3,1.375c.042.334.242.727-.187.987a.1.1,0,0,0-.032.05c-.2.45-.395.9-.586,1.352-.082.195-.049.239.19.306a.383.383,0,0,1,.224.423c-.024.067-.165.1-.254.146s-.2.068-.212.119a.283.283,0,0,0,.078.258c.234.127.456.35.835.141.111.4.23.743.3,1.094a5.923,5.923,0,0,0,.874,2.126.267.267,0,0,1,0,.362.2.2,0,0,0-.013.2,1.147,1.147,0,0,0,.349.374,1.339,1.339,0,0,1,.615.838c.014.034,0,.086.027.1.227.158.411.4.757.345.058-.009.138.049.2.088a2.992,2.992,0,0,0,.578.4,2.353,2.353,0,0,1,1.107.827A13.828,13.828,0,0,1,6.7,30.869a1.606,1.606,0,0,1,.213.839,7.306,7.306,0,0,0,.119,1.427c.019.19.136.265.335.265.278,0,.556.012.831,0a.3.3,0,0,0,.211-.118c.164-.287.31-.582.457-.876a.376.376,0,0,0,.045-.186c-.054-.744-.106-1.488-.177-2.232a1.682,1.682,0,0,1,.088-.828c.117-.285.221-.574.325-.864a6.207,6.207,0,0,1,1.024-2.016,1.922,1.922,0,0,1,.865-.754.9.9,0,0,0,.326-.171,6.045,6.045,0,0,0,1.172-1.677,22.747,22.747,0,0,0,1.248-2.7c.08-.206.151-.414.223-.621a2.674,2.674,0,0,1-1.525.477" transform="translate(0 0)" fill="#448fe5"/>
        <path id="Path_475" data-name="Path 475" d="M15.787,12.666V14.4a9.391,9.391,0,0,1,9.391,9.391h1.734A11.125,11.125,0,0,0,15.787,12.666m0,3.468v1.734a5.923,5.923,0,0,1,5.923,5.923h1.734a7.657,7.657,0,0,0-7.657-7.657m1.661,4.334A1.661,1.661,0,1,0,19.11,22.13a1.661,1.661,0,0,0-1.662-1.662" transform="translate(-4.969 -3.987)" fill="#448fe5"/>
      </g>
    </g>
  </g>
</svg>
