<svg xmlns="http://www.w3.org/2000/svg" xmlns:xlink="http://www.w3.org/1999/xlink" width="44" height="44" viewBox="0 0 44 44">
  <defs>
    <clipPath id="clip-path">
      <rect id="Rectangle_95" data-name="Rectangle 95" width="34.117" height="25.444" fill="#448fe5"/>
    </clipPath>
  </defs>
  <g id="icon-road" transform="translate(-157 -286)">
    <circle id="Ellipse_11" data-name="Ellipse 11" cx="22" cy="22" r="22" transform="translate(157 286)" fill="#e9faff"/>
    <g id="Group_448" data-name="Group 448" transform="translate(161.941 294.557)">
      <g id="Group_447" data-name="Group 447" transform="translate(0 0)" clip-path="url(#clip-path)">
        <path id="Path_489" data-name="Path 489" d="M14.789,5.345l-1.6,2.318H8.573c.045.442.236.587.652.577,1.335-.03,2.672-.015,4.007-.007a.425.425,0,0,0,.482-.3c1.443-3.55,5.544-4.1,7.792-1.046a1.083,1.083,0,0,1,.1.217l.14-.065.143-.744a4.88,4.88,0,0,1,.757.335,2.5,2.5,0,0,1,1.183,2.364A2.568,2.568,0,0,1,22.378,11.2a1.321,1.321,0,0,0-.526.518,4.382,4.382,0,0,1-8.212-.714c-.116-.384-.275-.53-.683-.374a5.545,5.545,0,0,0,1.02,2.072H7.821c.089-.563.194-1.116.255-1.674.015-.14-.11-.3-.17-.447A1.423,1.423,0,0,0,7.736,11a3.748,3.748,0,0,1-2.947,3.528A3.6,3.6,0,0,1,.83,12.335,3.843,3.843,0,0,1,2.981,7.217c.115-.041.261-.046.34-.126a3.3,3.3,0,0,1,2.671-.82.616.616,0,0,0,.15-.04V5.387c0-1.574,0-3.148,0-4.723,0-.569.086-.654.647-.656C8.05,0,9.31.018,10.57,0a.634.634,0,0,1,.694.525C11.734,2,12.233,3.467,12.7,4.943c.1.309.23.427.545.41.522-.029,1.048-.008,1.546-.008M4.109,13.32a2.452,2.452,0,0,0,2.428-2.481,2.488,2.488,0,0,0-2.4-2.567A2.511,2.511,0,0,0,1.716,10.79a2.484,2.484,0,0,0,2.393,2.53m7.818-8.137a.986.986,0,0,0-.023-.2c-.442-1.3-.88-2.6-1.344-3.885a.517.517,0,0,0-.4-.252C9.36.823,8.557.835,7.754.835H6.971V5.183Zm2.893,5.388A3.2,3.2,0,0,0,17.809,13,2.931,2.931,0,0,0,20.5,11.429a2.6,2.6,0,0,0-.27-.011,2.674,2.674,0,0,1-2.265-.754.367.367,0,0,0-.245-.089c-.954-.006-1.908,0-2.9,0m5.608-2.888c.014-.05.028-.1.041-.148a3.149,3.149,0,0,0-5.281.148Z" transform="translate(-0.24 0)" fill="#448fe5"/>
        <path id="Path_490" data-name="Path 490" d="M26.243,35.028l.426-1.058c.58.666,1.148,1.352,1.715,2.037h5.48S30.176,23.725,4.878,24.721l-.545.156.888-.116,0,.245-1.339.072,0-.07-2.018.579S19.5,29.036,19.394,36.006h7.869c-.339-.327-.685-.645-1.02-.979M9.4,25.444l-2.779-.387,0-.353,2.811.174Zm4.109,1.17-2.731-.851.06-.67,2.784.694Zm4,1.834-2.653-1.3.144-.9,2.725,1.162Zm3.84,2.509-2.54-1.746.26-1.107L21.709,29.7Zm3.692,2.993c-.415-.321-.82-.67-1.23-1s-.819-.668-1.22-1.028l.409-1.3c.421.336.832.7,1.246,1.06s.83.708,1.237,1.084Z" transform="translate(-0.86 -10.751)" fill="#448fe5"/>
        <path id="Path_491" data-name="Path 491" d="M0,28.2s.264.049.729.146a61.027,61.027,0,0,1,9.353,2.717,20.286,20.286,0,0,1,4.8,2.553,6.463,6.463,0,0,1,1.466,1.512,2.746,2.746,0,0,1,.5,1.506,2.364,2.364,0,0,1-.054.5l.426.226a3.457,3.457,0,0,0,.077-.721,3.756,3.756,0,0,0-.811-2.263,11.293,11.293,0,0,0-4-2.976A56.221,56.221,0,0,0,.052,27.5Z" transform="translate(0 -11.988)" fill="#448fe5"/>
        <path id="Path_492" data-name="Path 492" d="M33.278,24.817s.187.031.527.1a28.68,28.68,0,0,1,7.357,2.74,16.964,16.964,0,0,1,7.93,8.294l.379-.377a15.5,15.5,0,0,0-4.146-5.788,26.892,26.892,0,0,0-12-5.676Z" transform="translate(-15.354 -10.512)" fill="#448fe5"/>
      </g>
    </g>
  </g>
</svg>
