<svg id="logo" xmlns="http://www.w3.org/2000/svg" xmlns:xlink="http://www.w3.org/1999/xlink" width="121.022" height="28.768" viewBox="0 0 121.022 28.768">
  <defs>
    <clipPath id="clip-path">
      <rect id="Rectangle_110" data-name="Rectangle 110" width="121.022" height="28.768" fill="none"/>
    </clipPath>
  </defs>
  <g id="Group_460" data-name="Group 460" clip-path="url(#clip-path)">
    <path id="Path_493" data-name="Path 493" d="M579.445,15.712v.234c-.051.529-.56.672-1.109.631-.122.03-.143.132-.265.112a2.025,2.025,0,0,0-.244.845c.061.03.082.092.112.153-.061.825.112,1.425.092,2.219-.021.092.061.081.061.153a1.117,1.117,0,0,0-.234.977c.01.112.071.234.082.326,0,.031-.051.082-.041.112.01.061.071.1.081.153s-.031.04-.041.091.051.153.041.194c0,.081-.041.183-.041.234.01.112.112.173.112.264,0,.122-.071.1-.132.214a1.371,1.371,0,0,1-.02.183c-.031.071-.1.143-.112.193-.061.265.153.6.132.845-.03.336-.427.488-.59.7.02.061.071.163.02.214a6.428,6.428,0,0,1-1-.02v-.153a1.96,1.96,0,0,0-.59-.112c-.438-.071-.54-.56-1.018-.59-.285-.255-.479-.6-.875-.753a1.28,1.28,0,0,0-.224-.438v-.081c.305.071.784-.051.926.193.255-.02.489.143.713.173.133.01.285-.02.438,0a1.019,1.019,0,0,0,.244.041c.682-.061.713-1.222.672-1.852.305-.468.163-1.323.214-2.026a.6.6,0,0,0,.041-.193c0-.143-.082-.3-.082-.438,0-.326.071-.682.082-1.018a1.244,1.244,0,0,1-.1-.458c-.224-.316-.428-.071-.763,0-.254.051-.57.051-.845.081-.173.03-.336.132-.478.163-.122.01-.254-.02-.356,0s-.224.163-.346.1c-.081.01-.061.112-.132.132a1.135,1.135,0,0,1-.194-.02c-.01,0-.02.01-.031.01v-.6c.153-.071.183-.163.4-.214.112-.03.193-.183.336-.224a6.42,6.42,0,0,0,1.252-.458c.143-.061.244-.224.377-.275s.305-.01.367-.173c.01-.122-.061-.163-.082-.244.061-.112.173-.173.214-.305,0-.143-.122-.163-.132-.305-.01-.122.112-.224.091-.367-.041-.224-.367-.315-.438-.519-.03-.1-.1-.285-.112-.356-.051-.448.316-.611.377-1.038a1.074,1.074,0,0,1,.845-.285c.132.03.183.224.346.193a.72.72,0,0,0,.376.417c.082.173-.051.3-.071.438-.031.234.2.478,0,.692.132.153.051.519.265.59-.031.163.061.224.112.326a.953.953,0,0,1,.326.153.917.917,0,0,1,.02.193c.122.143.306.081.458.132.2.071.315.326.478.438m-5.8,6.4c.234-.305.5-.59.753-.875-.1-.315.143-.377.1-.682a.387.387,0,0,0-.254-.1.78.78,0,0,0-.6-.4Zm0-11.217V9.462c.356-.03.672-.275,1.059-.214.071.01.142.082.234.1.041.01.1-.01.132,0a.743.743,0,0,0,.346.132.828.828,0,0,1,.631.458c-.224.183-.306.5-.611.611-.163-.051-.234.01-.387.02a.4.4,0,0,0-.092.173c-.1.01-.112-.071-.214-.061a2.388,2.388,0,0,1-1.1.214m0,11.8a.553.553,0,0,0-.1-.112.171.171,0,0,0,.1.03Zm0-5.191a1.337,1.337,0,0,0-.234.183c-.071,0-.092.041-.173.02-.234.265-.682.305-.886.59-.488.041-.58.478-1.109.478.041-.234.285-.265.407-.417-.071-.122.021-.245.071-.326.4.061.427-.244.692-.326v-.173a3.041,3.041,0,0,0,.611-.285c.061-.041.1-.143.173-.193a2.447,2.447,0,0,1,.438-.153h.01Zm0-8.041h-.1a.678.678,0,0,1-.275.234h-.224c-.081.316-.438.234-.763.305-.1.031-.153.163-.254.092a1.42,1.42,0,0,1-.723.305,1.073,1.073,0,0,1-.763.234c-.092.163-.285.143-.478.2-.061.01-.112.071-.173.081a2.272,2.272,0,0,1-.265,0,2.56,2.56,0,0,0-.5.193c-.163.061-.336.041-.428.112-.438-.02-.651.183-1.048.193-.071.02-.071.112-.153.112-.336.092-.743.081-1.089.173-.061.02-.092.061-.153.071-.224.02-.448-.092-.651-.051-.081.02-.132.091-.193.112a.574.574,0,0,1-.132.01v.193c.285.041.5.336.784.387.112.02.234-.031.346-.02.366.02.6.244.9.275a5.534,5.534,0,0,0,1.283-.214c.224-.122.387-.356.733-.285.031.112.143.2.133.326,0,.082-.091.122-.133.224-.02.051,0,.112-.02.153-.112.234-.4.417-.519.651-.041.061-.01.143-.041.214-.071.163-.234.275-.306.417-.02.03.01.112,0,.153-.061.153-.275.214-.193.458-.051.082-.2.112-.265.193-.031.041-.02.132-.041.173-.051.081-.163.112-.2.173s-.02.183-.061.265-.132.1-.173.173-.041.193-.091.285c-.082.143-.224.224-.214.427a2.994,2.994,0,0,0-.611.631,2.146,2.146,0,0,0-.153.743c.01.366.448.193.763.153a1.365,1.365,0,0,1,.57-.285c.112-.1.112-.336.3-.366.1-.417.468-.55.743-.784-.061-.244.213-.356.326-.57.051-.081.02-.224.092-.326.051-.081.173-.092.254-.173.061-.051.092-.163.153-.234s.143-.071.183-.112c.041-.061.041-.183.1-.265.112-.142.275-.183.305-.305s-.02-.275,0-.387c.041-.2.224-.326.193-.519-.01-.092-.1-.183-.122-.285a6.994,6.994,0,0,0-.112-.8c-.2-.153-.448-.244-.458-.59.163-.234.641-.153.825-.366a.622.622,0,0,0,.245-.051c.071-.031.091-.122.173-.153a1.8,1.8,0,0,0,.845-.214,3.776,3.776,0,0,1,.458-.061c.224-.081.224-.265.478-.265.285,0,.6.02.906.02Zm0,10.6a2.856,2.856,0,0,0-1.425.132c-.214.082-.458.173-.5.346.091.051.122.173.305.244.428.163,1.283-.122,1.079.5a.275.275,0,0,1-.193.061,1.44,1.44,0,0,1-.254.417c-.194.427-.55.682-.7,1.15.183.163.336-.061.437-.173.356-.082.56-.438,1.018-.285.071-.112.153-.224.234-.336Zm-8.367-2.188V16.262a.4.4,0,0,1,.081.1c.01.153.071.407-.041.5.03.051.122.041.132.1a3.053,3.053,0,0,1-.173.906M573.307,7.4c.01.539-1.069.346-1.588.407-.112.091-.224.041-.4.051-.275.01-.59.2-.8.193-.183-.01-.336-.163-.5-.214s-.356-.03-.478-.092c-.2-.1-.2-.417-.478-.458.112-.183-.254-.2-.153-.458.55-.112,1.252.041,1.608-.285A4.713,4.713,0,0,0,571.76,6.5c.417-.02,1.12.1,1.282.377.031.041.041.132.091.214.071.132.173.2.173.305m-3.023,12.143c.122.163-.061.3-.091.458-.01.061.03.132.02.193-.01.112-.1.234-.132.366-.03.193.041.418-.081.59.092.051.03.193.061.326.02.091.112.183.112.285a1.3,1.3,0,0,1-.071.214c-.061.305.021.865-.448.855-.214-.01-.265-.173-.458-.224-.01-.255-.366-.539-.356-.916.01-.092.081-.173.091-.275.01-.143-.03-.3-.02-.438.01-.275-.071-.55-.04-.743.01-.081.091-.122.1-.193.061-.224-.091-.417-.1-.611-.01-.071.031-.122.02-.173-.051-.163-.376-.336-.132-.54-.051-.132-.285-.163-.285-.285s.245-.234.367-.224c.254.03.367.387.509.478.02.336.254.468.366.723V19.6c.224.03.336-.163.57-.061m-5.008-7.695v.193a.585.585,0,0,0-.133-.01c0-.041-.01-.071-.041-.082.02-.091.091-.1.173-.1m0,4.417V17.87a2.3,2.3,0,0,0-.153,1.12c-.336.193-.061.906-.326,1.069a.418.418,0,0,1-.092.285c-.031.315.061.54-.021.764-.03.081-.153.122-.193.214a.681.681,0,0,0,0,.529c-.152.143-.091.377-.285.468.122.224-.112.4-.132.611-.3.092-.367.427-.692.478.071-.4.275-.539.305-.977.183-.1.091-.3.132-.478.01-.071.091-.122.122-.214.031-.071.021-.163.051-.224.031-.081.1-.132.132-.214.051-.2-.041-.4.1-.519a.228.228,0,0,0,.265-.112,2.178,2.178,0,0,1-.112-.763c.041-.265-.051-.54,0-.784.02-.1.143-.2.153-.305a3.4,3.4,0,0,0-.02-.54c-.021-.143-.193-.3-.214-.458a1.637,1.637,0,0,1,.021-.305c-.01-.224-.071-.458-.071-.631,0-.305.041-.489-.153-.672.1-.153-.01-.387-.082-.5a.5.5,0,0,0-.244-.743c.061-.153-.02-.448.092-.55.02,0,.02.01.02.03a4.539,4.539,0,0,1,1.374,1.781c0,.01.01.02.02.03" transform="translate(-459.889 -5.304)" fill="#1a1311"/>
    <path id="Path_494" data-name="Path 494" d="M472.869,32.28a1.317,1.317,0,0,1-.794-.041.7.7,0,0,1-.672-.091c-.55.01-1.038-.377-1.6-.428-.366-.03-.713.081-.834-.275-.754-.234-1.038-.936-1.629-1.344-.193-.336-.366-.692-.6-1.028-.112-.163-.285-.275-.387-.427-.01-.02-.02-.031-.031-.051v-3.6a1.788,1.788,0,0,0,.1-.305c.051-.285-.051-.59.132-.825.478-.092.784.346,1.038.672a1.036,1.036,0,0,1,.356.987,2.684,2.684,0,0,1-.58.8c-.244.275-.5.519-.661.743a2.611,2.611,0,0,1-.021.407c.275.1.346.407.519.631.407.5,1.079.733,1.506,1.232.58.143.743.7,1.313.855.692.946,2.127,1.16,2.84,2.086m-7.223-9.486.678-.54a1.026,1.026,0,0,1,.143-.081c.163-.082.346-.112.5-.183.061-.02.361-.1.422-.131a3.492,3.492,0,0,0,.473-.2,4.5,4.5,0,0,0,.931-.732c.225-.169.311-.144.443-.276.254-.03.438-.132.661-.071s.318.31.56.427c-.02.122.082.245.041.366a3.288,3.288,0,0,1-.468.448,4.47,4.47,0,0,1-1.13.316,5.631,5.631,0,0,1-.58.081c-.193.03-.28.035-.464.075a4.279,4.279,0,0,0-.463.128,3.208,3.208,0,0,1-.361.078c-.071.01-.24.065-.29.065a1.506,1.506,0,0,0-.421.16l-.524.094Zm.678-2.576v-3.1c.631.061,1.4.1,1.476.631.041.316-.234.489-.407.682-.183.407-.479.733-.682,1.14a3.444,3.444,0,0,1-.387.651m0,8.377c-.081-.153-.173-.417-.356-.448s-.509.255-.651.387c-.194.173-.357.427-.519.54a1.067,1.067,0,0,1-.2.081c-.214.163-.377.366-.611.54a1.215,1.215,0,0,1-.336.224c-.092.051-.132.122-.3.091-.051.01.01.122-.061.112-.357,0-.459.315-.7.448a1.47,1.47,0,0,1-.224.071c-.173.082-.255.2-.448.244v-.315c.244-.255.631-.438.8-.763.061.01.041.092.091.092a2.186,2.186,0,0,1,.855-.784c.2-.417.621-.58.947-.967a2.057,2.057,0,0,0,.5-.763c.061-.4-.285-.784-.468-1.038a2.953,2.953,0,0,0-.387-.468,3.341,3.341,0,0,0-.906-.631,1.626,1.626,0,0,1,.977.234,7.39,7.39,0,0,1,.855.417c.193.132.3.377.611.316a1.95,1.95,0,0,0,.336-.733c.051-.163.132-.326.193-.489Zm0-11.482v3.1a.745.745,0,0,1-.081.112,6.753,6.753,0,0,1-1.171,1.283c-.244-.061-.224-.285-.2-.611,0-.122-.01-.265,0-.315.02-.081.122-.193.173-.305a6.76,6.76,0,0,0,.3-1.171c.051-.2.2-.4.255-.59.02-.082.02-.183.041-.265.04-.132.132-.244.163-.356a2.247,2.247,0,0,0-.03-.743c.091-.132.244-.041.346-.163a1.53,1.53,0,0,0,.214.02m0,5.14v.254c-.2.071-.346.3-.56.387a2.355,2.355,0,0,1-.265.041,4.945,4.945,0,0,1-.631.183,2.464,2.464,0,0,0-.977.2c-.112-.041-.3-.01-.4-.051-.061-.3.163-.407.265-.6.193-.143.326.122.5.153.112.02.224-.071.407-.112s.366-.041.5-.092c.112-.041.193-.163.285-.2.173-.061.336.01.55-.02a1.217,1.217,0,0,0,.326-.142m-4.407,7.288a.3.3,0,0,0,.2-.244,1.066,1.066,0,0,0-.2-.489Zm0,1.344c-.041,0-.081.01-.122.01v-.173a.448.448,0,0,1,.122-.153Zm0-2.076v.733a.571.571,0,0,1-.122.041v-.875c.041.03.081.051.091.071.01,0,.02.01.031.03m-.122-2.993V23.333a1,1,0,0,1,.071.346,5.537,5.537,0,0,1-.061.631c-.041.407.071.876.02,1.252-.01.091-.02.173-.03.254m0,5.079a.221.221,0,0,1-.081-.01.479.479,0,0,1,.081-.163Zm0-7.563v2.484a7.2,7.2,0,0,1-.153.824c-.305.081-.468-.163-.7-.173-.082-.254-.4-.3-.356-.611.193-.081.479-.214.519-.468.02-.122-.03-.275-.02-.387a9.543,9.543,0,0,0-.071-2.158c.326-.122.642.143.784.489m0,5.374c-.051-.03-.112-.061-.153-.092-.387-.244-.54.041-.967.224a5.288,5.288,0,0,1-.794.275c-.336.071-.957.071-1.1-.183s.03-.753.02-1.028c-.01-.366-.051-.713-.041-1.079.01-.794-.02-1.537.061-2.27a.442.442,0,0,1,0-.448c-.142-.173-.04-.427-.04-.672s-.071-.5-.092-.763.041-.58,0-.814c-.051-.326-.377-.651-.132-.987a5.571,5.571,0,0,1,.763-.224c.163-.061.285-.2.448-.244.193-.061.417-.041.57-.112.183-.092.265-.3.468-.336.265-.071.8.071.906-.163.061-.153-.183-.427-.336-.519-.133-.071-.367-.132-.52-.2-.3-.122-.448-.214-.662-.132-.071.03-.153.02-.244.051-.143.041-.285.142-.448.2s-.346.092-.519.153c-.3.1-.549.326-.814.407-.163.051-.376.082-.56.132a2.892,2.892,0,0,1-.814.132c-.509,0-.957.315-1.507.2.01.234.234.3.427.3a.525.525,0,0,0,.092.285,1.97,1.97,0,0,0,.855.519,1.087,1.087,0,0,0,.784-.132c.306.112.275.468.316.855a5.274,5.274,0,0,1,.091.651c.01.509-.153,1.028-.132,1.568.02.438-.112.876-.112,1.3,0,.2.041.407.02.59-.01.132-.082.255-.092.377-.01.1.03.214.02.315a6.467,6.467,0,0,1-.132.692,1.379,1.379,0,0,0,.071.611c.01.092,0,.214.02.316.041.224.193.407.153.611-.092.519-.987.377-1.435.448-.142.02-.234.1-.366.061-.183-.427.153-.916.224-1.476.051-.315.02-.641.071-.967-.163-.2-.2-.57-.427-.855-.071-.091-.214-.142-.3-.224-.214-.234-.356-.58-.641-.356-.051.214.1.346.092.56-.01.122-.092.254-.092.377,0,.091.061.163.071.244a2.012,2.012,0,0,1-.112.651c-.041.163-.061.326-.091.478-.071.3-.214.56-.3.855-.081.275-.122.539-.224.8a5.828,5.828,0,0,0-.255.783c.285.438.458,1.059,1.018,1.13.417.051.55-.3.824-.427.061-.031.143-.031.224-.071a1.1,1.1,0,0,1,.183-.112c.081-.03.2-.01.3-.041.285-.1.519-.316.712-.366.143-.03.275-.01.387-.041a1.516,1.516,0,0,1,.743-.183,7.065,7.065,0,0,1,1.669-.377,2.328,2.328,0,0,1,.316-.112c.081-.01.173.031.244.02.315-.02.57-.2.926-.153.061-.081.214-.1.356-.143Z" transform="translate(-370.514 -13.954)" fill="#1a1311"/>
    <path id="Path_495" data-name="Path 495" d="M279.5,38.619c.041.255-.142.407-.132.682-.092.02-.02-.112-.122-.081-.02.132.1.122.1.234-.02.58-.112,1-.621,1.13a5.068,5.068,0,0,1-1.171-.091c-.071-.01-.112.02-.163.01-.173-.02-.326-.092-.479-.112a2.678,2.678,0,0,0-.977.132c-.173.051-.326.041-.468.082-.081.03-.2.122-.3.122-.255-.01-.366-.387-.468-.631-.031-.092-.1-.163-.112-.214a1.7,1.7,0,0,1,.061-.875c.041-.184.1-.306.153-.54.071-.366.315-.672.366-.937.03-.132-.01-.3.02-.427.03-.153.112-.305.153-.448.051-.173.061-.336.1-.509.091-.407.234-.641.3-1.069.041-.326.275-.733.346-1.1.051-.254.173-.855-.112-.875-.143,0-.163.122-.254.2a4.156,4.156,0,0,0-1.018.713,5.963,5.963,0,0,0-.713.723c-.183.224-.285.519-.55.662-.254.346-.509.713-.794,1.048-.091.112-.234.193-.315.3-.071.082-.112.214-.193.315-.122.143-.254.214-.275.448-.265.152-.336.509-.6.662,0,.082-.061.1-.061.173-.315.234-.448.621-.7.916a3.584,3.584,0,0,0-.763.937c-.55.336-.845,1.13-1.476,1.323a.632.632,0,0,1-.387-.02c-.081-.021-.142-.092-.234-.112-.224-.071-.305-.071-.427-.254a4.436,4.436,0,0,0-.356-1.171c-.061-.122-.183-.244-.193-.356a1.619,1.619,0,0,1,.173-.5c.153-.2.468-.224.661-.377a.656.656,0,0,0,.57-.285c-.01-.356.041-.692.02-1a1.066,1.066,0,0,1-.041-.173c.01-.163.142-.316.061-.489-.092-.092-.305-.061-.336-.214a1.366,1.366,0,0,1-.682-.061c-.051-.122-.2-.132-.3-.214-.061-.051-.081-.153-.153-.234-.051-.061-.153-.081-.193-.132-.092-.112-.122-.275-.214-.387s-.224-.214-.316-.336c-.214-.305-.1-.763-.427-.977-.051-.122-.051-.224-.092-.326-.03-.061-.112-.071-.1-.234.2.061.254.275.387.407.061.01.173-.02.193.02a4.532,4.532,0,0,0,1.059.723c.2.01.346.112.519.061.122-.041.091-.132.163-.224.061-.061.153-.03.173-.112a7.127,7.127,0,0,1,.214-1.11c.01-.081-.01-.153,0-.234.01-.061.051-.132.061-.193a2.039,2.039,0,0,0-.061-.468c-.02-.143.02-.305,0-.427-.031-.244-.1-.478-.153-.784a3.894,3.894,0,0,0-.336-.9c.366-.051.458.173.8.143a3.485,3.485,0,0,1,.723.58,2.9,2.9,0,0,1,.478.57,4.107,4.107,0,0,1,.183,2.24c-.01.071.061.071.051.152-.071.132-.031.245-.031.387-.02.305-.143.611-.163.9a3.225,3.225,0,0,1-.132,1.191c.092.346-.122.7-.02.987.336.1.366-.254.621-.305.315-.377.753-.652,1.109-1.018a3.906,3.906,0,0,1,.336-.366c.092-.071.214-.092.305-.153.356-.254.56-.7,1.018-.875v-.214a7.5,7.5,0,0,0,1.221-1.191c.132-.132.306-.234.428-.377.4-.387.865-.713,1.272-1.13.387.03.5-.214.641-.448.01-.2-.051-.377.061-.5-.122-.183-.041-.427-.061-.641a6.788,6.788,0,0,1-.214-1.343c.173-.173.468-.224.662-.377a1.027,1.027,0,0,0,.6-.153,3.773,3.773,0,0,1,.316,1.069c.03.132-.02.387.02.55.03.1.163.163.214.254a.692.692,0,0,1,.326.112,1.339,1.339,0,0,1,.611.489c.4.02.265.641.091.855a1.189,1.189,0,0,1-.448.316c-.3.122-.672.071-.814.326-.081.234-.03.6-.214.723.041.356-.193.448-.153.794-.071.081-.091.193-.163.254-.214,1.384-.723,2.555-1.028,3.9.2.234.6.01.957-.041.153-.02.316.01.468-.02.1-.021.193-.1.305-.112a4.393,4.393,0,0,1,.723.061,1.691,1.691,0,0,1,.214-.02c.173.03.631.387.662.621" transform="translate(-216.567 -23.257)" fill="#1a1311"/>
    <path id="Path_496" data-name="Path 496" d="M369.959,15.125c.655.469,1.453-.03,2.263-.412.81-.107,1.633-.865,2.338-.377a10.469,10.469,0,0,0,1.7-.254c.647.024,1.211.263,1.2,1.043-.011.555-.366.747-.837.819s-1.057.313-1.529.1a2.792,2.792,0,0,0-2.413.671c-.813.344-1.632,0-2.451.512-.165.058-.148.773-.131.92.017.337.033.857-.132.92a.873.873,0,0,1,.946-.364c.332-.129.678-.179,1.029-.312a1.391,1.391,0,0,1,1.06-.208,2.787,2.787,0,0,1,1.039.489c-.038.455-.052.875-.064,1.3-.012.2-.022.831-.053,1.31-.061.768-.2,2.5-.606,2.461-.4.577-1.066,1.514-2.169.846-.19-.842-.411-.623-.622-.758-.211-.293-.412-.241-.561-.819a3.948,3.948,0,0,0-.195,1.767c.007.3.019.583.034,1.053.015.416.033.609.05.831.017.062.033.445.045.689.012.327.019.481.019.7,0,.252,0,.4-.006.52s-.011.2-.021.331c-.012.347-.03.576-.054.543-.023.15-.053.159-.089.407a.865.865,0,0,1-.31.564c-.136.009-.309.335-.525.487a3.9,3.9,0,0,0-.323-.889,3.793,3.793,0,0,0-.2-.6,1.73,1.73,0,0,0-.1-.354c-.009-.143-.015-.182-.019-.395,0-.154,0-.3,0-.442,0,0,.008-.338.016-.393a3.255,3.255,0,0,1,.029-.409,3.5,3.5,0,0,1,.088-.7,6.316,6.316,0,0,0,.113-.777c.04-.313.08-.715.119-.956.038-.317.074-.616.105-.85a12.2,12.2,0,0,0,.043-2.561c-.738.012-1.131,1.047-1.554,1.633a2.243,2.243,0,0,1-1.732,1.784c-.15-.562-.242-.129-.287-.8a4.5,4.5,0,0,1,0-1.079,7.5,7.5,0,0,1,.21-1.217,4.432,4.432,0,0,1,.36-1.216c.137-.887.289-.136.443-1.278.154-.839.312-.978.461-.588.227-.29.536-.1.865-.75a6.694,6.694,0,0,0,.976-.433v-.789a4.28,4.28,0,0,0,2.269-.217,17.152,17.152,0,0,1,1.675-1.1c-.792-.051-1.6.657-2.4.451s-1.592.911-2.36.939c-.768.4-1.512.76-2.212,1.107-.735.7-1.468.587-2.028.8-.56.012-.949-.375-1-1.59.647.116,1.311-.328,1.973-.133.662.028,1.323-.516,1.964-.757.641-.347,1.263-.879,1.847-.819-.175.233-.585.168-.789-.394.391.16.428-.772.317-1.46-.112-.557-.373-1.383-.58-1.037a2.18,2.18,0,0,1,2.154.311c.565,1.006.873.947.607,2.186m-1.183,5c.021-.85.134-.541.152-1.337.018-.922-.058-1.082-.414-1.029-.248.245-.48.982-.686.787-.206.148-.386.852-.531.724-.145.7-.254.47-.317,1.154a2.777,2.777,0,0,0-.044.885c.275-.043.587.066.9-.608a.979.979,0,0,1,.936-.575m1.052.526a11.361,11.361,0,0,1,0,1.709c.443.585.838-.325,1.17.28.333.426.6-.238.8-.494a4.089,4.089,0,0,0,.339-1.011,4.6,4.6,0,0,0-.2-1.273,4.8,4.8,0,0,0-1.169.277c-.351.1-.663.476-.935.511" transform="translate(-295.88 -10.169)" fill="#1a1311" fill-rule="evenodd"/>
    <path id="Path_497" data-name="Path 497" d="M176.467,11.674a2.36,2.36,0,0,1-.1.981,3.166,3.166,0,0,1-.383.7,1.69,1.69,0,0,0-.362.722c.07.209.158-.023.258.176.1.11.214-.047.337-.042.123.08.254-.012.39-.173.136-.184.276-.086.417-.219.141-.057.281-.178.418-.136a.3.3,0,0,0,.394-.092.355.355,0,0,1,.344.114,1.269,1.269,0,0,1,.269.512c-.193.059-.436.54-.707.574a1.743,1.743,0,0,1-.88.327,7.15,7.15,0,0,1-.935.16c-.308.034-.6.053-.871.07a3.409,3.409,0,0,0,.088-.795,5.8,5.8,0,0,0-.08-.891c-.053-.067-.133-.705-.237-.889a4,4,0,0,0-.383-.79,1.267,1.267,0,0,0-.518-.593.8.8,0,0,1,.521-.541c.212-.28.453.04.7.091.245-.061.5.156.725.387s.437.2.6.346" transform="translate(-141.972 -8.765)" fill="#1a1311" fill-rule="evenodd"/>
    <path id="Path_498" data-name="Path 498" d="M176.467,11.674a2.36,2.36,0,0,1-.1.981,3.166,3.166,0,0,1-.383.7,1.69,1.69,0,0,0-.362.722c.07.209.158-.023.258.176.1.11.214-.047.337-.042.123.08.254-.012.39-.173.136-.184.276-.086.417-.219.141-.057.281-.178.418-.136a.3.3,0,0,0,.394-.092.355.355,0,0,1,.344.114,1.269,1.269,0,0,1,.269.512c-.193.059-.436.54-.707.574a1.743,1.743,0,0,1-.88.327,7.15,7.15,0,0,1-.935.16c-.308.034-.6.053-.871.07a3.409,3.409,0,0,0,.088-.795,5.8,5.8,0,0,0-.08-.891c-.053-.067-.133-.705-.237-.889a4,4,0,0,0-.383-.79,1.267,1.267,0,0,0-.518-.593.8.8,0,0,1,.521-.541c.212-.28.453.04.7.091.245-.061.5.156.725.387S176.3,11.525,176.467,11.674Z" transform="translate(-141.972 -8.765)" fill="none" stroke="#1a1311" stroke-width="0.77"/>
    <path id="Path_499" data-name="Path 499" d="M211.605,19.537V20.1c-.231.123-.469.238-.712.348s-.491.215-.741.319c-.25.266-.5.174-.754.306-.252-.047-.5.382-.75.31a.784.784,0,0,0-.73.33c-.238-.049-.47.357-.694.366.17.1.319.529.449.652a1.236,1.236,0,0,1,.18.31c.055.141.106.35.152.5a2.165,2.165,0,0,1,.126.493c.038.4.071-.079.1.444.02.27.038.5.054.332a1.578,1.578,0,0,0,.045.347c.013-.144.025.3.035.294.01-.264.019.511.026.419.007.068.013.235.017.366,0,.42.007-.03.009.372,0,.544,0,.3,0,.393,0-.309,0,.137-.006.36,0,.543-.011.044-.019.5-.008.145-.019.1-.031.516-.006.1-.012-.1-.019.3-.007.438-.014-.14-.022.295a1.837,1.837,0,0,1-.051.408,2.508,2.508,0,0,1-.028.357c-.01.493-.02.348-.03.248s-.043.162-.067.362c-.023.42-.047.5-.073.529-.025.131-.051.237-.078.383-.107.585-.226,1.119-.346,1.574-.971-.018-1.107-.872-1.414-1.555a.675.675,0,0,0,.461-.034.252.252,0,0,1,.387-.108c-.019-.243-.037-.516-.052-.811-.015-.09-.029-.37-.04-.877a3.343,3.343,0,0,1-.016-.471c0,.091-.009-.042-.013-.451,0-.317,0-.385-.006-.394,0-.274,0-.3-.006-.193s-.006-.371-.009-.358c0-.232-.005-.207-.007-.524,0-.389,0,.15-.005-.425,0-.162,0-.543,0-.7,0-.461,0-.5,0-.684,0,.061,0-.847,0-.658,0-.111,0-.5,0-.623q0-.23,0-.446t0-.416c0-.25.006-.652.009-.729a2.632,2.632,0,0,1-.7,0,5.87,5.87,0,0,1-1.984-.137c-.068.305-.12.646-.163,1.007-.043.473-.078.824-.112,1.133-.034.392-.067.909-.106,1.176-.039.506-.085.685-.145,1.136a7.619,7.619,0,0,1-.23,1.012c-.287.923-.769,1.535-1.648,1.463-.444-.485.45-.491.565-.848.07-.231.139-.483.206-.752s.131-.554.191-.852a5.51,5.51,0,0,0,.162-.927c.048-.213.088-.816.119-.975a8.842,8.842,0,0,0,.062-1c.01-.326.008-.586-.008-.994-.016-.328-.047-.651-.094-.965a6.269,6.269,0,0,0-.5-1.737,12.994,12.994,0,0,1,.842-1.541c.152-.245.307-.487.461-.73a.649.649,0,0,1,.23-.32c.076-.021.151-.182.225-.417.074-.432.146-.281.217-.426.071-.067.139-.291.206-.343.066-.116.13-.457.191-.412.061-.246.119-.439.174-.414a3.653,3.653,0,0,1,.153-.53,2.1,2.1,0,0,0,.129-.379c.19-.129.409-.218.613.19a1.916,1.916,0,0,1,.287.345c.088.141.166.119.228.431s.11.212.136.454a1.221,1.221,0,0,1,.009.417,1.954,1.954,0,0,1-.305.626,1.52,1.52,0,0,1-.6.587,3.087,3.087,0,0,1-.759.552.99.99,0,0,0-.782.521,7.894,7.894,0,0,0-.669.494,1.783,1.783,0,0,0-.42.472c.374.662,1.135.938,1.131,1.979a7.142,7.142,0,0,0,1.783-.774c.3-.17.6-.506.906-.529.3-.1.609-.452.915-.516.306-.133.614-.254.924-.421.309-.042.62-.4.933-.245a3,3,0,0,1,.941.012,2.917,2.917,0,0,1,.949.351" transform="translate(-164.67 -11.82)" fill="#1a1311" fill-rule="evenodd"/>
    <path id="Path_500" data-name="Path 500" d="M211.605,19.537V20.1c-.231.123-.469.238-.712.348s-.491.215-.741.319c-.25.266-.5.174-.754.306-.252-.047-.5.382-.75.31a.784.784,0,0,0-.73.33c-.238-.049-.47.357-.694.366.17.1.319.529.449.652a1.236,1.236,0,0,1,.18.31c.055.141.106.35.152.5a2.165,2.165,0,0,1,.126.493c.038.4.071-.079.1.444.02.27.038.5.054.332a1.578,1.578,0,0,0,.045.347c.013-.144.025.3.035.294.01-.264.019.511.026.419.007.068.013.235.017.366,0,.42.007-.03.009.372,0,.544,0,.3,0,.393,0-.309,0,.137-.006.36,0,.543-.011.044-.019.5-.008.145-.019.1-.031.516-.006.1-.012-.1-.019.3-.007.438-.014-.14-.022.295a1.837,1.837,0,0,1-.051.408,2.508,2.508,0,0,1-.028.357c-.01.493-.02.348-.03.248s-.043.162-.067.362c-.023.42-.047.5-.073.529-.025.131-.051.237-.078.383-.107.585-.226,1.119-.346,1.574-.971-.018-1.107-.872-1.414-1.555a.675.675,0,0,0,.461-.034.252.252,0,0,1,.387-.108c-.019-.243-.037-.516-.052-.811-.015-.09-.029-.37-.04-.877a3.343,3.343,0,0,1-.016-.471c0,.091-.009-.042-.013-.451,0-.317,0-.385-.006-.394,0-.274,0-.3-.006-.193s-.006-.371-.009-.358c0-.232-.005-.207-.007-.524,0-.389,0,.15-.005-.425,0-.162,0-.543,0-.7,0-.461,0-.5,0-.684,0,.061,0-.847,0-.658,0-.111,0-.5,0-.623q0-.23,0-.446t0-.416c0-.25.006-.652.009-.729a2.632,2.632,0,0,1-.7,0,5.87,5.87,0,0,1-1.984-.137c-.068.305-.12.646-.163,1.007-.043.473-.078.824-.112,1.133-.034.392-.067.909-.106,1.176-.039.506-.085.685-.145,1.136a7.619,7.619,0,0,1-.23,1.012c-.287.923-.769,1.535-1.648,1.463-.444-.485.45-.491.565-.848.07-.231.139-.483.206-.752s.131-.554.191-.852a5.51,5.51,0,0,0,.162-.927c.048-.213.088-.816.119-.975a8.842,8.842,0,0,0,.062-1c.01-.326.008-.586-.008-.994-.016-.328-.047-.651-.094-.965a6.269,6.269,0,0,0-.5-1.737,12.994,12.994,0,0,1,.842-1.541c.152-.245.307-.487.461-.73a.649.649,0,0,1,.23-.32c.076-.021.151-.182.225-.417.074-.432.146-.281.217-.426.071-.067.139-.291.206-.343.066-.116.13-.457.191-.412.061-.246.119-.439.174-.414a3.653,3.653,0,0,1,.153-.53,2.1,2.1,0,0,0,.129-.379c.19-.129.409-.218.613.19a1.916,1.916,0,0,1,.287.345c.088.141.166.119.228.431s.11.212.136.454a1.221,1.221,0,0,1,.009.417,1.954,1.954,0,0,1-.305.626,1.52,1.52,0,0,1-.6.587,3.087,3.087,0,0,1-.759.552.99.99,0,0,0-.782.521,7.894,7.894,0,0,0-.669.494,1.783,1.783,0,0,0-.42.472c.374.662,1.135.938,1.131,1.979a7.142,7.142,0,0,0,1.783-.774c.3-.17.6-.506.906-.529.3-.1.609-.452.915-.516.306-.133.614-.254.924-.421.309-.042.62-.4.933-.245a3,3,0,0,1,.941.012A2.917,2.917,0,0,1,211.605,19.537Z" transform="translate(-164.67 -11.82)" fill="none" stroke="#1a1311" stroke-width="0.77"/>
    <path id="Path_501" data-name="Path 501" d="M164.011,35.078c.068.366-1.949,1.764-2.4.707a16.11,16.11,0,0,0,2.4-.707" transform="translate(-131.92 -28.634)" fill="#1a1311" fill-rule="evenodd"/>
    <path id="Path_502" data-name="Path 502" d="M164.011,35.078c.068.366-1.949,1.764-2.4.707A16.11,16.11,0,0,0,164.011,35.078Z" transform="translate(-131.92 -28.634)" fill="none" stroke="#1a1311" stroke-width="0.77"/>
    <path id="Path_503" data-name="Path 503" d="M146.218,46.043a24.444,24.444,0,0,0,2.7-.878q.43-.166.853-.338a1.12,1.12,0,0,0,.843-.348,1.233,1.233,0,0,0,.841-.351c.281.056.562-.214.846-.346,0-.281-.114-.6-.305-.672-.192-.278-.458-.137-.75-.132a2.663,2.663,0,0,0-.908.048,1.08,1.08,0,0,1-.78-.131.751.751,0,0,1-.366-.669c.33-.06.66.188.981-.118a2.555,2.555,0,0,0,.928-.276c.3-.2.574-.015.828-.418.254-.272.484-.342.681-.54a2.25,2.25,0,0,0,.682-2.182c-.473.552-.857,1.193-1.329,1.745a4.791,4.791,0,0,1-.508.517,2.834,2.834,0,0,1-.828-.163,1.006,1.006,0,0,1-.372-.622,1.409,1.409,0,0,1,.069-.77c1.861,1.089,2.747-2.393,4.524-.566.032.11,0,.279.141.283a5.077,5.077,0,0,1-1.838,1.838c.475.323,1.509-1.009,2.121-.141a2.525,2.525,0,0,1-1.262,1c-.256.121-.52.234-.765.366a1.25,1.25,0,0,0-.659.472c.213.13.454.411.711.348a2.31,2.31,0,0,0,.8-.111c.274-.077.55-.177.815-.243a1.61,1.61,0,0,1,.747-.047,1.092,1.092,0,0,1,.6.477c-.156.249-.349.414-.561.387a3.934,3.934,0,0,1-.679.1,4.918,4.918,0,0,0-.7.069c-.223-.022-.432.206-.61.292v.99a1.032,1.032,0,0,0,.692.4c.277-.035.581.192.856.24a.714.714,0,0,1,.682.413,1.257,1.257,0,0,1,.173.923.986.986,0,0,1-.662-.256c-.2.06-.372-.193-.542-.377a3.022,3.022,0,0,1-.505-.414c-.172-.062-.351-.408-.553-.366a5.061,5.061,0,0,1,.006,1.166,3.855,3.855,0,0,1-.238,1.119,3.445,3.445,0,0,1-.435.9,1.36,1.36,0,0,1-.585.506c-.215.264-.447.094-.689-.061a8.312,8.312,0,0,1-.745-.8c.168-.233.382-.094.606-.079s.458.2.666-.063V45.618a1.5,1.5,0,0,0-.724.4,3.073,3.073,0,0,0-.518.688c-.149.229-.281.635-.411.787-.13.087-.258.46-.4.692-.143.269-.3.434-.49.4-.307-.055-.419-.44-.434-.573a2,2,0,0,1,.149-.82,1.914,1.914,0,0,0,.144-.586.77.77,0,0,0,.8-.224,4.073,4.073,0,0,0,.652-.373c.2-.139.4-.286.6-.428a4.73,4.73,0,0,1,.636-.389,1.049,1.049,0,0,0-.009-.415.785.785,0,0,0-.132-.292c-.3.106-.583.2-.861.3a6.151,6.151,0,0,1-.813.46c-1.333.841-2.595,1.9-4.4.937Z" transform="translate(-119.357 -31.258)" fill="#1a1311" fill-rule="evenodd"/>
    <path id="Path_504" data-name="Path 504" d="M146.218,46.043a24.444,24.444,0,0,0,2.7-.878q.43-.166.853-.338a1.12,1.12,0,0,0,.843-.348,1.233,1.233,0,0,0,.841-.351c.281.056.562-.214.846-.346,0-.281-.114-.6-.305-.672-.192-.278-.458-.137-.75-.132a2.663,2.663,0,0,0-.908.048,1.08,1.08,0,0,1-.78-.131.751.751,0,0,1-.366-.669c.33-.06.66.188.981-.118a2.555,2.555,0,0,0,.928-.276c.3-.2.574-.015.828-.418.254-.272.484-.342.681-.54a2.25,2.25,0,0,0,.682-2.182c-.473.552-.857,1.193-1.329,1.745a4.791,4.791,0,0,1-.508.517,2.834,2.834,0,0,1-.828-.163,1.006,1.006,0,0,1-.372-.622,1.409,1.409,0,0,1,.069-.77c1.861,1.089,2.747-2.393,4.524-.566.032.11,0,.279.141.283a5.077,5.077,0,0,1-1.838,1.838c.475.323,1.509-1.009,2.121-.141a2.525,2.525,0,0,1-1.262,1c-.256.121-.52.234-.765.366a1.25,1.25,0,0,0-.659.472c.213.13.454.411.711.348a2.31,2.31,0,0,0,.8-.111c.274-.077.55-.177.815-.243a1.61,1.61,0,0,1,.747-.047,1.092,1.092,0,0,1,.6.477c-.156.249-.349.414-.561.387a3.934,3.934,0,0,1-.679.1,4.918,4.918,0,0,0-.7.069c-.223-.022-.432.206-.61.292v.99a1.032,1.032,0,0,0,.692.4c.277-.035.581.192.856.24a.714.714,0,0,1,.682.413,1.257,1.257,0,0,1,.173.923.986.986,0,0,1-.662-.256c-.2.06-.372-.193-.542-.377a3.022,3.022,0,0,1-.505-.414c-.172-.062-.351-.408-.553-.366a5.061,5.061,0,0,1,.006,1.166,3.855,3.855,0,0,1-.238,1.119,3.445,3.445,0,0,1-.435.9,1.36,1.36,0,0,1-.585.506c-.215.264-.447.094-.689-.061a8.312,8.312,0,0,1-.745-.8c.168-.233.382-.094.606-.079s.458.2.666-.063V45.618a1.5,1.5,0,0,0-.724.4,3.073,3.073,0,0,0-.518.688c-.149.229-.281.635-.411.787-.13.087-.258.46-.4.692-.143.269-.3.434-.49.4-.307-.055-.419-.44-.434-.573a2,2,0,0,1,.149-.82,1.914,1.914,0,0,0,.144-.586.77.77,0,0,0,.8-.224,4.073,4.073,0,0,0,.652-.373c.2-.139.4-.286.6-.428a4.73,4.73,0,0,1,.636-.389,1.049,1.049,0,0,0-.009-.415.785.785,0,0,0-.132-.292c-.3.106-.583.2-.861.3a6.151,6.151,0,0,1-.813.46c-1.333.841-2.595,1.9-4.4.937Z" transform="translate(-119.357 -31.258)" fill="none" stroke="#1a1311" stroke-width="0.77"/>
    <path id="Path_505" data-name="Path 505" d="M158.694,133.963v-.209a1.325,1.325,0,0,0,.355-.04.121.121,0,0,0,.052-.064,1.741,1.741,0,0,0,.034-.42q.013-.6.013-.9l0-1.051a2.169,2.169,0,0,0-.027-.482.1.1,0,0,0-.047-.055,1.431,1.431,0,0,0-.376-.057v-.209q.389.013.575.013.206,0,.47-.013.574.732,1.3,1.589.482.573.831.946v-.986q0-.56-.012-.966a.912.912,0,0,0-.04-.3.086.086,0,0,0-.055-.042,3.09,3.09,0,0,0-.348-.035v-.209q.27.013.538.013.367,0,.664-.013v.209a1.636,1.636,0,0,0-.334.04.131.131,0,0,0-.052.035.148.148,0,0,0-.03.057,2.327,2.327,0,0,0-.02.383l-.009.994,0,1q0,.4.017.805l-.033.035q-.3-.055-.427-.072-.639-.708-1.543-1.778-.457-.541-.738-.911v.966q0,.395.012.951a2.152,2.152,0,0,0,.035.472.077.077,0,0,0,.037.042,1.4,1.4,0,0,0,.358.049v.209q-.4-.018-.574-.017-.144,0-.616.017" transform="translate(-129.542 -106.507)" fill="#1a1311"/>
    <path id="Path_506" data-name="Path 506" d="M188.906,138.232l.072.072-.111.238a1.433,1.433,0,0,1-.384.167,1.659,1.659,0,0,1-.436.056,1.149,1.149,0,0,1-.854-.315,1.2,1.2,0,0,1-.312-.885,1.663,1.663,0,0,1,.092-.6.715.715,0,0,1,.245-.318,2.79,2.79,0,0,1,.393-.241,1.052,1.052,0,0,1,.488-.114,1,1,0,0,1,.673.228.916.916,0,0,1,.266.733c0,.042,0,.1-.01.189l-.407.075q-.189.012-.546.012h-.538a1,1,0,0,0,.256.645.758.758,0,0,0,.557.217.987.987,0,0,0,.281-.041,1.248,1.248,0,0,0,.276-.121m-1.384-.964q.224.02.447.02.2,0,.412-.02l0-.117a.72.72,0,0,0-.112-.447.367.367,0,0,0-.3-.141.4.4,0,0,0-.231.066.393.393,0,0,0-.144.186,1.809,1.809,0,0,0-.072.454" transform="translate(-152.551 -111.257)" fill="#1a1311"/>
    <path id="Path_507" data-name="Path 507" d="M204.773,136.5v-.2q.308.017.78.017.343,0,.614-.017v.2l-.161.008a.373.373,0,0,0-.163.025.078.078,0,0,0-.033.07q0,.027.087.373l.244.9.5-1.1q.171-.378.233-.545h.263q.169.465.7,1.643l.221-.664a3.446,3.446,0,0,0,.167-.594.086.086,0,0,0-.047-.082,1.54,1.54,0,0,0-.311-.032v-.2q.353.012.549.012.214,0,.485-.012v.2a.715.715,0,0,0-.239.032.184.184,0,0,0-.06.07,8.773,8.773,0,0,0-.335.882q-.189.547-.378,1.176h-.407q-.278-.709-.678-1.566-.433.884-.7,1.566h-.41q-.107-.452-.328-1.219t-.258-.839a.145.145,0,0,0-.052-.06.929.929,0,0,0-.283-.042" transform="translate(-167.156 -111.202)" fill="#1a1311"/>
    <path id="Path_508" data-name="Path 508" d="M245.858,133.963v-.209a1.859,1.859,0,0,0,.3-.025.2.2,0,0,0,.1-.041.2.2,0,0,0,.045-.106q.017-.107.03-.785.007-.482.008-.983,0-.986-.006-1c0-.012-.063-.019-.176-.019q-.346,0-.6.02a.631.631,0,0,0-.163.025.079.079,0,0,0-.029.044q-.01.031-.042.436h-.214q0-.476-.025-.82l.027-.02q.783.037,1.523.037t1.653-.037l.027.04q-.047.342-.067.8h-.206a2.3,2.3,0,0,0-.045-.454.113.113,0,0,0-.08-.038,6.044,6.044,0,0,0-.79-.033c-.033,0-.053,0-.06.015a.445.445,0,0,0-.01.132l-.015,1.671q0,.726.012.892t.06.2a1.813,1.813,0,0,0,.392.052v.209q-.366-.018-.777-.017-.54,0-.876.017" transform="translate(-200.065 -106.507)" fill="#1a1311"/>
    <path id="Path_509" data-name="Path 509" d="M271.335,138.509v.2l-.192-.008q-.152-.007-.3-.007-.234,0-.444.015l-.025-.027.025-.341-.518.388a1.112,1.112,0,0,1-.246.032.524.524,0,0,1-.407-.157.653.653,0,0,1-.144-.457.622.622,0,0,1,.2-.522,2.9,2.9,0,0,1,1.119-.355.756.756,0,0,0-.1-.427.491.491,0,0,0-.421-.182.623.623,0,0,0-.138.016.667.667,0,0,0-.143.051l-.112.266-.171-.042,0-.112,0-.109,0-.1a3.433,3.433,0,0,1,.547-.3,1.013,1.013,0,0,1,.338-.045,1.109,1.109,0,0,1,.477.088.586.586,0,0,1,.268.24.933.933,0,0,1,.085.443q0,.122-.01.436t-.01.52a2.256,2.256,0,0,0,.017.378.1.1,0,0,0,.049.062,1,1,0,0,0,.265.045m-.939-1.021a1.465,1.465,0,0,0-.567.206.37.37,0,0,0-.131.3.33.33,0,0,0,.084.239.283.283,0,0,0,.213.087.571.571,0,0,0,.4-.222Z" transform="translate(-219.65 -111.257)" fill="#1a1311"/>
    <path id="Path_510" data-name="Path 510" d="M287.8,133.433v-.2a1.161,1.161,0,0,0,.324-.035q.044-.025.056-.139.02-.157.02-.692,0-.231-.008-.428l-.008-.291a.308.308,0,0,0-.031-.178.272.272,0,0,0-.168-.039l-.186-.007v-.191a3.083,3.083,0,0,0,.987-.214l.062.05q-.037.476-.037,1.385a6.291,6.291,0,0,0,.017.635.143.143,0,0,0,.046.1,1.289,1.289,0,0,0,.325.045v.2q-.448-.015-.693-.015-.131,0-.706.015m.691-3.606a.386.386,0,1,1-.275.113.372.372,0,0,1,.275-.113" transform="translate(-234.93 -105.978)" fill="#1a1311"/>
    <path id="Path_511" data-name="Path 511" d="M301.876,136.751v-.191a4.012,4.012,0,0,0,.721-.117l.265-.082c.023,0,.035.019.035.058s0,.077-.008.135l-.006.227.4-.318a.681.681,0,0,1,.423-.1.9.9,0,0,1,.673.26.96.96,0,0,1,.254.7,1.525,1.525,0,0,1-.063.435,1.227,1.227,0,0,1-.15.341,1.46,1.46,0,0,1-.306.3q-.375.3-.447.343a.667.667,0,0,1-.34.082.949.949,0,0,1-.224-.027,1.05,1.05,0,0,1-.221-.082l.01.756a.618.618,0,0,0,.057.318.768.768,0,0,0,.368.046v.2q-.385-.015-.671-.015-.547,0-.77.015v-.2a1.092,1.092,0,0,0,.3-.03.09.09,0,0,0,.037-.047,2.981,2.981,0,0,0,.032-.509q.015-.631.015-.939l0-.987a2.528,2.528,0,0,0-.027-.5.092.092,0,0,0-.037-.047,1.167,1.167,0,0,0-.318-.022m1.007,1.473a.805.805,0,0,0,.244.214.582.582,0,0,0,.286.072.5.5,0,0,0,.419-.219,1.205,1.205,0,0,0,.163-.708.923.923,0,0,0-.166-.6.525.525,0,0,0-.425-.2.6.6,0,0,0-.26.062,1,1,0,0,0-.26.187Z" transform="translate(-246.421 -111.311)" fill="#1a1311"/>
    <path id="Path_512" data-name="Path 512" d="M326.15,138.232l.072.072-.111.238a1.434,1.434,0,0,1-.384.167,1.659,1.659,0,0,1-.436.056,1.149,1.149,0,0,1-.854-.315,1.2,1.2,0,0,1-.312-.885,1.663,1.663,0,0,1,.092-.6.715.715,0,0,1,.245-.318,2.791,2.791,0,0,1,.393-.241,1.052,1.052,0,0,1,.488-.114,1,1,0,0,1,.673.228.916.916,0,0,1,.266.733c0,.042,0,.1-.01.189l-.407.075q-.189.012-.546.012h-.538a1,1,0,0,0,.256.645.758.758,0,0,0,.557.217.987.987,0,0,0,.281-.041,1.249,1.249,0,0,0,.276-.121m-1.384-.964q.224.02.447.02.2,0,.412-.02l0-.117a.72.72,0,0,0-.112-.447.367.367,0,0,0-.3-.141.4.4,0,0,0-.231.066.393.393,0,0,0-.144.186,1.808,1.808,0,0,0-.072.454" transform="translate(-264.582 -111.257)" fill="#1a1311"/>
    <path id="Path_513" data-name="Path 513" d="M342.759,133.433v-.2a1.161,1.161,0,0,0,.325-.035c.029-.017.048-.063.056-.139q.02-.157.02-.692,0-.231-.008-.428l-.007-.291a.31.31,0,0,0-.031-.178.272.272,0,0,0-.168-.039l-.187-.007v-.191a3.08,3.08,0,0,0,.987-.214l.062.05q-.037.476-.037,1.385a6.231,6.231,0,0,0,.017.635.143.143,0,0,0,.045.1,1.293,1.293,0,0,0,.325.045v.2q-.448-.015-.693-.015-.131,0-.706.015m.691-3.606a.386.386,0,1,1-.275.113.371.371,0,0,1,.275-.113" transform="translate(-279.794 -105.978)" fill="#1a1311"/>
    <path id="Path_514" data-name="Path 514" d="M372.375,133.215l.062.057a2.433,2.433,0,0,0-.114.253,2.387,2.387,0,0,1-.556.215,2.679,2.679,0,0,1-.615.063,2.411,2.411,0,0,1-1.1-.229,1.642,1.642,0,0,1-.692-.644,1.851,1.851,0,0,1-.242-.952,1.626,1.626,0,0,1,.548-1.266,2.178,2.178,0,0,1,1.512-.493,3.533,3.533,0,0,1,.635.057,3.6,3.6,0,0,1,.625.174l.017.037a1.423,1.423,0,0,0-.064.258q-.033.216-.051.537h-.209a3.26,3.26,0,0,0-.03-.431.477.477,0,0,0-.136-.132.975.975,0,0,0-.329-.152,1.686,1.686,0,0,0-.458-.058,1.247,1.247,0,0,0-.947.368,1.422,1.422,0,0,0-.351,1.024,1.592,1.592,0,0,0,.423,1.151,1.412,1.412,0,0,0,1.071.407,2.132,2.132,0,0,0,.493-.055,2.464,2.464,0,0,0,.508-.191" transform="translate(-301.31 -106.298)" fill="#1a1311"/>
    <path id="Path_515" data-name="Path 515" d="M393.881,133.433v-.2a1.158,1.158,0,0,0,.324-.035q.044-.025.056-.139.02-.157.02-.692,0-.231-.008-.428l-.007-.291a.31.31,0,0,0-.031-.178.272.272,0,0,0-.168-.039l-.186-.007v-.191a3.082,3.082,0,0,0,.986-.214l.062.05q-.037.476-.037,1.385a6.291,6.291,0,0,0,.017.635.144.144,0,0,0,.046.1,1.292,1.292,0,0,0,.325.045v.2q-.448-.015-.693-.015-.131,0-.706.015m.691-3.606a.386.386,0,1,1-.275.113.371.371,0,0,1,.275-.113" transform="translate(-321.524 -105.978)" fill="#1a1311"/>
    <path id="Path_516" data-name="Path 516" d="M407.552,133.07l.33-.216q-.006-.44-.025-.77a4.276,4.276,0,0,0,.641-.253l.075.057a8.643,8.643,0,0,0-.075.967,1.3,1.3,0,0,0,.226.02,2.69,2.69,0,0,0,.455-.035l.022.015-.022.089a2.313,2.313,0,0,0-.055.256q-.291-.02-.428-.02a1.956,1.956,0,0,0-.2.01c0,.168,0,.315,0,.443a4.456,4.456,0,0,0,.05.951q.049.114.236.114a.616.616,0,0,0,.118-.012,1.314,1.314,0,0,0,.136-.035l.042.094q-.149.167-.291.346c-.061.01-.118.017-.169.022s-.1.008-.141.008a.761.761,0,0,1-.349-.072.467.467,0,0,1-.2-.187.72.72,0,0,1-.064-.341q0-.12.013-.627.012-.445.012-.7l-.127,0a1.777,1.777,0,0,0-.2.015Z" transform="translate(-332.684 -107.613)" fill="#1a1311"/>
    <path id="Path_517" data-name="Path 517" d="M421.507,136.8v-.2q.571.015.731.015.221,0,.624-.015v.2a.945.945,0,0,0-.275.034.082.082,0,0,0-.043.078,4.473,4.473,0,0,0,.243.688l.271.685.231-.541a4.417,4.417,0,0,0,.311-.84.075.075,0,0,0-.044-.073,1.008,1.008,0,0,0-.267-.031v-.2l.157.006q.251.009.333.009t.467-.015v.2a.459.459,0,0,0-.2.037.161.161,0,0,0-.057.055q-.04.055-.313.685l-.462,1.058-.43.978a1.746,1.746,0,0,1-.262.421.729.729,0,0,1-.558.237.882.882,0,0,1-.358-.084,3.948,3.948,0,0,0,.087-.477l.067-.022a.448.448,0,0,0,.34.161.368.368,0,0,0,.271-.107,2.609,2.609,0,0,0,.333-.619l-.554-1.405-.306-.755a.262.262,0,0,0-.086-.12.743.743,0,0,0-.252-.044" transform="translate(-344.075 -111.501)" fill="#1a1311"/>
    <path id="Path_518" data-name="Path 518" d="M457.282,132.531v-.2q.452.012.808.012.328,0,.708-.012v.159a1.62,1.62,0,0,0-.208.082,3.73,3.73,0,0,0-.03.427q0,.127.03.5a5.6,5.6,0,0,1-.824.24,3.685,3.685,0,0,1-.687.063,2.139,2.139,0,0,1-1.5-.5,1.81,1.81,0,0,1,.011-2.6,2.329,2.329,0,0,1,1.591-.49,4.156,4.156,0,0,1,.7.057,3.321,3.321,0,0,1,.639.174l.022.037a5.388,5.388,0,0,0-.107.785h-.209a2.784,2.784,0,0,0-.032-.417.971.971,0,0,0-.409-.276,1.709,1.709,0,0,0-.59-.092,1.357,1.357,0,0,0-1.018.388,1.455,1.455,0,0,0-.379,1.062,1.655,1.655,0,0,0,.4,1.158,1.276,1.276,0,0,0,.983.439,1.673,1.673,0,0,0,.661-.152,3.574,3.574,0,0,0,.02-.363.957.957,0,0,0-.045-.423,1.781,1.781,0,0,0-.532-.067" transform="translate(-371.443 -106.298)" fill="#1a1311"/>
    <path id="Path_519" data-name="Path 519" d="M482.935,137.53a1.321,1.321,0,0,1,2.137-.955,1.2,1.2,0,0,1,.286.888,1.323,1.323,0,0,1-.329.963,1.219,1.219,0,0,1-.916.338,1.154,1.154,0,0,1-.877-.316,1.282,1.282,0,0,1-.3-.918m.688-.171a1.938,1.938,0,0,0,.169.944.432.432,0,0,0,.395.217.406.406,0,0,0,.357-.184,1.272,1.272,0,0,0,.125-.67,1.947,1.947,0,0,0-.154-.924.432.432,0,0,0-.4-.2.423.423,0,0,0-.364.187,1.134,1.134,0,0,0-.133.635" transform="translate(-394.219 -111.257)" fill="#1a1311"/>
    <path id="Path_520" data-name="Path 520" d="M502.273,136.8v-.2l.639.015q.323,0,.691-.015v.2a1.094,1.094,0,0,0-.274.027.069.069,0,0,0-.044.067.53.53,0,0,0,.025.117l.149.415.331.859.325-.762a2.963,2.963,0,0,0,.226-.624.071.071,0,0,0-.041-.071,1.255,1.255,0,0,0-.287-.029v-.2q.325.015.529.015.221,0,.475-.015v.2a.468.468,0,0,0-.249.051,3.4,3.4,0,0,0-.287.554q-.238.511-.672,1.554h-.437q-.164-.45-.492-1.275-.216-.539-.291-.706a.342.342,0,0,0-.095-.137.568.568,0,0,0-.221-.042" transform="translate(-410.005 -111.501)" fill="#1a1311"/>
    <path id="Path_521" data-name="Path 521" d="M525.695,138.232l.072.072-.111.238a1.432,1.432,0,0,1-.384.167,1.657,1.657,0,0,1-.436.056,1.149,1.149,0,0,1-.854-.315,1.2,1.2,0,0,1-.312-.885,1.663,1.663,0,0,1,.092-.6.714.714,0,0,1,.245-.318,2.8,2.8,0,0,1,.393-.241,1.052,1.052,0,0,1,.488-.114,1,1,0,0,1,.673.228.916.916,0,0,1,.266.733c0,.042,0,.1-.01.189l-.407.075q-.188.012-.546.012h-.538a1,1,0,0,0,.256.645.758.758,0,0,0,.557.217.988.988,0,0,0,.281-.041,1.253,1.253,0,0,0,.276-.121m-1.385-.964q.224.02.448.02.2,0,.412-.02l0-.117a.721.721,0,0,0-.112-.447.367.367,0,0,0-.3-.141.4.4,0,0,0-.231.066.39.39,0,0,0-.144.186,1.814,1.814,0,0,0-.072.454" transform="translate(-427.47 -111.257)" fill="#1a1311"/>
    <path id="Path_522" data-name="Path 522" d="M541.737,138.712v-.2a1.337,1.337,0,0,0,.288-.03.108.108,0,0,0,.047-.047.839.839,0,0,0,.032-.264q.01-.363.01-.662,0-.575-.015-.682a.119.119,0,0,0-.045-.088,1.027,1.027,0,0,0-.318-.036v-.191a3.692,3.692,0,0,0,.716-.118l.255-.1c.023,0,.035.016.035.047l0,.035q-.008.157-.008.45a3.684,3.684,0,0,0,.281-.308.7.7,0,0,1,.2-.182.565.565,0,0,1,.388-.015q-.022.249-.03.677l-.112.04a.3.3,0,0,0-.3-.175.425.425,0,0,0-.256.077.343.343,0,0,0-.137.177,3.374,3.374,0,0,0-.02.508q0,.631.017.735a.129.129,0,0,0,.047.095,1.1,1.1,0,0,0,.375.053v.2l-.278-.008q-.266-.007-.46-.007t-.428.007Z" transform="translate(-442.219 -111.257)" fill="#1a1311"/>
    <path id="Path_523" data-name="Path 523" d="M557.993,138.712v-.2a.872.872,0,0,0,.305-.044.186.186,0,0,0,.042-.128q.015-.251.015-.886,0-.314-.01-.54a.533.533,0,0,0-.02-.164.076.076,0,0,0-.039-.03,2.137,2.137,0,0,0-.294-.017v-.191a2.368,2.368,0,0,0,.42-.058,2.993,2.993,0,0,0,.48-.133l.067-.023c.023,0,.035.019.035.057l0,.022q-.007.07-.007.358l.384-.323a.4.4,0,0,1,.149-.085,1.022,1.022,0,0,1,.265-.03.9.9,0,0,1,.43.091.563.563,0,0,1,.246.251,1.2,1.2,0,0,1,.078.5q0,.15-.007.346-.013.4-.013.7a.665.665,0,0,0,.028.232.107.107,0,0,0,.056.06,1.65,1.65,0,0,0,.272.037v.2l-.306-.01-.2,0-.512.015-.027-.032a7.177,7.177,0,0,0,.065-.971,2.251,2.251,0,0,0-.077-.779.373.373,0,0,0-.363-.189.5.5,0,0,0-.293.086.417.417,0,0,0-.161.183.975.975,0,0,0-.017.252q0,.9.007,1.033c.005.087.019.141.042.161a.835.835,0,0,0,.333.053v.2q-.433-.015-.731-.015-.177,0-.643.015" transform="translate(-455.489 -111.257)" fill="#1a1311"/>
    <path id="Path_524" data-name="Path 524" d="M579.971,138.712v-.2a.974.974,0,0,0,.292-.034.119.119,0,0,0,.046-.086,4.89,4.89,0,0,0,.02-.577,9.675,9.675,0,0,0-.025-1.038c-.013-.045-.071-.068-.173-.07l-.16,0v-.191a4.617,4.617,0,0,0,.52-.082,2.539,2.539,0,0,0,.389-.12.169.169,0,0,1,.052-.012c.023,0,.035.021.035.062s0,.074-.006.127c0,.023,0,.065,0,.124v.089l.407-.306a.652.652,0,0,1,.392-.1.758.758,0,0,1,.422.1.637.637,0,0,1,.238.329l.422-.335a.535.535,0,0,1,.341-.1.763.763,0,0,1,.574.192.879.879,0,0,1,.184.623l-.005.207q-.01.344-.01.613a2.847,2.847,0,0,0,.022.461.132.132,0,0,0,.051.081.941.941,0,0,0,.28.039v.2q-.309-.015-.539-.015t-.462.015l-.03-.047a8.692,8.692,0,0,0,.065-1.045,1.806,1.806,0,0,0-.094-.755.357.357,0,0,0-.33-.15.483.483,0,0,0-.272.077.375.375,0,0,0-.155.177,2.031,2.031,0,0,0-.025.436q0,.658.017.91a.2.2,0,0,0,.046.143.91.91,0,0,0,.317.051v.2q-.326-.015-.639-.015-.39,0-.7.015v-.2q.246,0,.288-.071a2.251,2.251,0,0,0,.042-.624,7.084,7.084,0,0,0-.025-.785.367.367,0,0,0-.121-.234.4.4,0,0,0-.265-.08.452.452,0,0,0-.226.057.5.5,0,0,0-.172.162.313.313,0,0,0-.04.177l0,.095q.007.07.008.391l0,.294a4.343,4.343,0,0,0,.015.5.1.1,0,0,0,.041.072.983.983,0,0,0,.272.045v.2q-.3-.015-.652-.015-.124,0-.67.015" transform="translate(-473.429 -111.257)" fill="#1a1311"/>
    <path id="Path_525" data-name="Path 525" d="M611.833,138.232l.072.072-.112.238a1.431,1.431,0,0,1-.384.167,1.657,1.657,0,0,1-.436.056,1.149,1.149,0,0,1-.854-.315,1.2,1.2,0,0,1-.312-.885,1.663,1.663,0,0,1,.092-.6.714.714,0,0,1,.245-.318,2.8,2.8,0,0,1,.393-.241,1.053,1.053,0,0,1,.488-.114,1,1,0,0,1,.673.228.916.916,0,0,1,.266.733c0,.042,0,.1-.01.189l-.407.075q-.189.012-.546.012h-.538a1,1,0,0,0,.256.645.758.758,0,0,0,.557.217.988.988,0,0,0,.281-.041,1.253,1.253,0,0,0,.276-.121m-1.385-.964q.223.02.448.02.2,0,.412-.02l0-.117a.721.721,0,0,0-.112-.447.367.367,0,0,0-.3-.141.4.4,0,0,0-.231.066.39.39,0,0,0-.144.186,1.814,1.814,0,0,0-.072.454" transform="translate(-497.784 -111.257)" fill="#1a1311"/>
    <path id="Path_526" data-name="Path 526" d="M628.362,138.712v-.2a.872.872,0,0,0,.306-.044.186.186,0,0,0,.042-.128q.015-.251.015-.886,0-.314-.01-.54a.533.533,0,0,0-.02-.164.076.076,0,0,0-.039-.03,2.137,2.137,0,0,0-.294-.017v-.191a2.367,2.367,0,0,0,.42-.058,2.992,2.992,0,0,0,.48-.133l.067-.023c.023,0,.035.019.035.057l0,.022q-.007.07-.007.358l.384-.323a.4.4,0,0,1,.149-.085,1.022,1.022,0,0,1,.265-.03.9.9,0,0,1,.43.091.563.563,0,0,1,.246.251,1.2,1.2,0,0,1,.078.5q0,.15-.007.346-.013.4-.013.7a.664.664,0,0,0,.028.232.107.107,0,0,0,.056.06,1.65,1.65,0,0,0,.272.037v.2l-.306-.01-.2,0-.512.015-.027-.032a7.177,7.177,0,0,0,.065-.971,2.251,2.251,0,0,0-.077-.779.373.373,0,0,0-.363-.189.5.5,0,0,0-.293.086.417.417,0,0,0-.161.183.975.975,0,0,0-.017.252q0,.9.007,1.033c.005.087.019.141.042.161a.835.835,0,0,0,.333.053v.2q-.433-.015-.731-.015-.177,0-.643.015" transform="translate(-512.931 -111.257)" fill="#1a1311"/>
    <path id="Path_527" data-name="Path 527" d="M649.812,133.07l.33-.216q-.006-.44-.025-.77a4.275,4.275,0,0,0,.641-.253l.075.057a8.643,8.643,0,0,0-.075.967,1.3,1.3,0,0,0,.226.02,2.69,2.69,0,0,0,.455-.035l.022.015-.022.089a2.327,2.327,0,0,0-.055.256q-.291-.02-.428-.02a1.956,1.956,0,0,0-.2.01c0,.168,0,.315,0,.443a4.452,4.452,0,0,0,.05.951q.049.114.236.114a.615.615,0,0,0,.118-.012,1.315,1.315,0,0,0,.136-.035l.042.094q-.149.167-.291.346c-.061.01-.118.017-.169.022s-.1.008-.141.008a.761.761,0,0,1-.349-.072.467.467,0,0,1-.2-.187.72.72,0,0,1-.064-.341q0-.12.013-.627.012-.445.012-.7l-.127,0a1.776,1.776,0,0,0-.2.015Z" transform="translate(-530.44 -107.613)" fill="#1a1311"/>
    <path id="Path_528" data-name="Path 528" d="M7.646,8.254,9.4,8.622,9.3,9.359l1.8.322L12.987.427s-3.5-1.381-5.341.828v2.67H7.83a2.383,2.383,0,0,1,2.855-1.473L9.717,6.965,7.646,6.55ZM7,2.361s-3.776-.046-4.742,4.88L7.646,8.254V6.55l-3.039-.6c.414-1.8,2.44-2.026,3.039-2.026V1.256A4.091,4.091,0,0,0,7,2.361" transform="translate(-1.844 -0.001)" fill="#ebb700" fill-rule="evenodd"/>
    <path id="Path_529" data-name="Path 529" d="M7.46,47.671l-.184.691-2.947-.6v1.75l2.579.553-.829,4.512a2.512,2.512,0,0,1-1.75-1.2v2.993a6.686,6.686,0,0,0,3.131.967l1.8-9.347Zm-3.131.092L.184,46.934c-1.013,4.927,2.487,6.308,2.487,6.308a3.518,3.518,0,0,0,1.657,3.131V53.38a3.084,3.084,0,0,1-.322-1.243s-2.624-.967-2.255-3.131l2.578.506Z" transform="translate(0 -38.312)" fill="#5ca13c" fill-rule="evenodd"/>
    <path id="Path_530" data-name="Path 530" d="M64.53,8.127a3.574,3.574,0,0,0-1.7-3.177V8.081a2.7,2.7,0,0,1,.276,1.2s2.624.967,2.256,3.085l-2.532-.506v1.7l4.19.875c1.013-4.927-2.486-6.308-2.486-6.308m-1.7-3.177A7.3,7.3,0,0,0,59.7,4.075l-1.8,9.3,1.841.414.184-.783,2.9.553v-1.7l-2.579-.506.783-4.512a2.37,2.37,0,0,1,1.8,1.243Z" transform="translate(-47.264 -3.326)" fill="#cf3717" fill-rule="evenodd"/>
    <path id="Path_531" data-name="Path 531" d="M53.26,63.084a3.1,3.1,0,0,0,.6-1.013s3.776.046,4.7-4.927L53.26,56.131v1.75l3.039.6c-.368,1.75-2.348,1.98-3.039,2.026Zm-1.841-7.275.138-.691L49.715,54.7,47.873,64s3.591,1.381,5.387-.921V60.505h-.23a2.324,2.324,0,0,1-2.809,1.473l.921-4.512,2.118.415v-1.75Z" transform="translate(-39.079 -44.655)" fill="#005a9f" fill-rule="evenodd"/>
    <path id="Path_532" data-name="Path 532" d="M1,110.792a3.558,3.558,0,0,1,4.052,2.3,9.449,9.449,0,0,1,1.152,3.131,4.989,4.989,0,0,1-2.67-2.67A7.479,7.479,0,0,0,1,110.792" transform="translate(-0.818 -90.383)" fill="#908c86" fill-rule="evenodd"/>
    <path id="Path_533" data-name="Path 533" d="M36.021,107.086s-2.947,3.039-1.566,5.433c0,0,.645.461,1.152-.506,0,0-1.059,0-.691-1.335a11.7,11.7,0,0,1,1.105-3.592" transform="translate(-27.825 -87.414)" fill="#908c86" fill-rule="evenodd"/>
    <path id="Path_534" data-name="Path 534" d="M35.343,128.8s4.788-6.538,10.543-4.006a35.221,35.221,0,0,0-4.374,1.612s-3.177,2.394-6.169,2.394" transform="translate(-28.85 -101.397)" fill="#908c86" fill-rule="evenodd"/>
  </g>
</svg>
