<svg xmlns="http://www.w3.org/2000/svg" xmlns:xlink="http://www.w3.org/1999/xlink" width="215.674" height="126.333" viewBox="0 0 215.674 126.333">
  <defs>
    <clipPath id="clip-path">
      <rect id="Rectangle_4" data-name="Rectangle 4" width="215.674" height="74.416" fill="#fff"/>
    </clipPath>
  </defs>
  <g id="top-pic" transform="translate(-72 -119.084)">
    <path id="Path_535" data-name="Path 535" d="M-63.205-4.468l-4.028.059q-.234,0-.278-.073a.547.547,0,0,1-.044-.278V-6.606a.5.5,0,0,1,.059-.308.458.458,0,0,1,.264-.044l4.028.059h2.388V-8.584h-1.318l-3.838.059q-.234,0-.278-.059a.5.5,0,0,1-.044-.264v-1.743q0-.249.059-.293a.5.5,0,0,1,.264-.044l3.838.059h1.318v-1.67h-1.611l-3.267.059q-.249,0-.293-.059a.547.547,0,0,1-.044-.278V-14.5q0-.234.059-.278a.547.547,0,0,1,.278-.044l3.267.059h1.611v-1.67h-2.7l-3.867.059a.464.464,0,0,1-.293-.059.693.693,0,0,1-.044-.308V-18.5q0-.249.073-.293a.458.458,0,0,1,.264-.044l3.867.059h2.7v-1.655h-1.1l-3.721.059q-.249,0-.293-.059a.5.5,0,0,1-.044-.264v-1.743q0-.234.059-.278a.547.547,0,0,1,.278-.044l3.721.059h1.1a18.6,18.6,0,0,0-.205-2.432q1.538.044,2.93.205.483.059.483.308a1.415,1.415,0,0,1-.176.469,3.691,3.691,0,0,0-.176,1.45h1.743l4.248-.059a.534.534,0,0,1,.322.059.547.547,0,0,1,.044.278l-.059,2.959v.688l2.007-.059a.464.464,0,0,1,.293.059.547.547,0,0,1,.044.278v1.8q0,.234-.059.278a.547.547,0,0,1-.278.044q-.146,0-2.007-.059v.718l.059,2.9q0,.249-.073.293a.591.591,0,0,1-.293.044l-4.248-.059h-1.743v1.67h2.52l3.809-.059q.264,0,.308.059a.43.43,0,0,1,.059.278v1.743q0,.22-.059.271a.557.557,0,0,1-.308.051l-3.809-.059h-2.52V-6.9h3.545l4.043-.059q.234,0,.293.073a.547.547,0,0,1,.044.278v1.846a.517.517,0,0,1-.051.293q-.051.059-.286.059l-4.043-.059h-3.545q.015.806.044,1.553.015.483.015.513a.557.557,0,0,1-.051.308q-.051.059-.286.059H-60.51q-.264,0-.322-.073a.591.591,0,0,1-.044-.293l.029-2.065Zm8.76-10.3v-1.67h-3.516v1.67Zm0-5.669h-3.516v1.655h3.516ZM-77.282-.454a18.947,18.947,0,0,0,3.9-3.647,22,22,0,0,1-2.344-4.6,1.47,1.47,0,0,1-.132-.439q0-.161.322-.337l1.465-.776a.948.948,0,0,1,.381-.146q.161,0,.366.5a16.452,16.452,0,0,0,1.45,3.34,19.541,19.541,0,0,0,1.553-5.8H-72.9l-.483.732q-.176.264-.352.264A5.107,5.107,0,0,1-75-11.851q-1.2-.557-1.2-.718a.708.708,0,0,1,.176-.366,49.964,49.964,0,0,0,4.585-7.852h-1.978l-2.725.059a.464.464,0,0,1-.293-.059.547.547,0,0,1-.044-.278v-2.212q0-.264.073-.322a.458.458,0,0,1,.264-.044l2.725.059h3.267a2.864,2.864,0,0,0,.659-.059l.366-.088q.293,0,1,.879a3.528,3.528,0,0,1,.776,1.289.676.676,0,0,1-.308.5,3.725,3.725,0,0,0-.806,1.113q-2.271,4.146-2.725,4.922h1.436a1.266,1.266,0,0,0,.688-.146,1.331,1.331,0,0,1,.4-.146q.322,0,1.084.864.718.762.718,1.084a.928.928,0,0,1-.337.6,2.45,2.45,0,0,0-.352,1.055A22.534,22.534,0,0,1-69.9-4.014l.146.117q2.988,2.52,9.272,2.52a99.329,99.329,0,0,0,11.4-.571,5.939,5.939,0,0,0-.835,2.2q-.161.776-.337.894a1.9,1.9,0,0,1-.806.117q-4.277.308-9.448.308-7.1,0-10.269-2.769-.527-.454-.6-.542a21.3,21.3,0,0,1-3.149,3.325q-.5.425-.659.425t-.542-.6A6.89,6.89,0,0,0-77.282-.454Zm49.2-12.686,4.043-.059q.249,0,.293.059a.547.547,0,0,1,.044.278l-.059,2.065V-9.3l.059,2.095q0,.308-.337.308l-4.043-.059h-8.306v1.641h9.961l4.321-.059q.234,0,.278.073a.591.591,0,0,1,.044.293l-.059,2.271v2.49l.059,2.227a.464.464,0,0,1-.059.293.5.5,0,0,1-.264.044h-2.432a.464.464,0,0,1-.293-.059.547.547,0,0,1-.044-.278V1.172H-36.393v.864q0,.249-.059.293a.547.547,0,0,1-.278.044H-39.1q-.234,0-.278-.059a.547.547,0,0,1-.044-.278l.059-3.457V-9.36l-.059-3.5q0-.249.059-.293A.5.5,0,0,1-39.1-13.2l4.263.059Zm3.208,10.107H-36.393v1.919h11.514Zm-1.89-6.152v-1.729h-9.624v1.729Zm3.281-7.705,4.043-.059q.249,0,.293.059a.547.547,0,0,1,.044.278l-.059,1.289v1.04l.059,2.886a.477.477,0,0,1-.051.286.477.477,0,0,1-.286.051H-21.8q-.249,0-.293-.073a.458.458,0,0,1-.044-.264v-3.12H-40.8v3.12q0,.234-.073.293a.591.591,0,0,1-.293.044H-43.5q-.249,0-.293-.073a.458.458,0,0,1-.044-.264l.059-2.886v-.864l-.059-1.465q0-.249.059-.293a.547.547,0,0,1,.278-.044l4.043.059h6.24a13.733,13.733,0,0,0-.205-2.007q1.2,0,2.754.117L-30.9-19a6.233,6.233,0,0,0-1.626-.864l.542-.6-3.442-.059a14.709,14.709,0,0,1,.864,1.831.8.8,0,0,1,.073.234q0,.132-.366.22l-1.992.381a1.662,1.662,0,0,1-.308.059q-.176,0-.264-.293a19.75,19.75,0,0,0-.923-2.432h-1.89a13.635,13.635,0,0,1-2.2,2.49q-.527.483-.688.483-.132,0-.63-.542a7.046,7.046,0,0,0-1.523-1.26,14.2,14.2,0,0,0,3.721-4.526,6.48,6.48,0,0,0,.542-1.406q1.729.22,2.754.439.454.044.454.366a.545.545,0,0,1-.234.425,2.146,2.146,0,0,0-.513.718l-.22.41h3.208l3.516-.059q.264,0,.308.059a.4.4,0,0,1,.059.264v1.831a13.438,13.438,0,0,0,1.86-2.988,7.725,7.725,0,0,0,.513-1.494q1.553.205,2.563.439.483.088.483.366a.576.576,0,0,1-.234.425,3.554,3.554,0,0,0-.571.981l-.088.176H-22.8l4.292-.059q.234,0,.278.059a.5.5,0,0,1,.044.264v1.875q0,.234-.059.278a.5.5,0,0,1-.264.044l-4.292-.059h-.513a11.905,11.905,0,0,1,.894,1.831.8.8,0,0,1,.073.234q0,.132-.366.22l-1.948.352a1.619,1.619,0,0,1-.308.044q-.176,0-.264-.278a21.622,21.622,0,0,0-1-2.4h-2.212A12.213,12.213,0,0,1-29.522-19a1.961,1.961,0,0,1-.454.425.454.454,0,0,1,.029.19,1.415,1.415,0,0,1-.176.469,2.716,2.716,0,0,0-.117,1.025ZM-3-8.276a38.872,38.872,0,0,1,3.457,6.9.568.568,0,0,1,.059.22q0,.205-.4.381l-1.89.806a1.15,1.15,0,0,1-.352.117q-.117,0-.22-.264-.308-.923-.923-2.314A76.664,76.664,0,0,1-11.045.088a4.032,4.032,0,0,0-1.084.483A.8.8,0,0,1-12.6.776q-.22,0-.4-.4a18.829,18.829,0,0,1-.864-2.871q1.289-.161,2.153-.293V-18.208l-.059-4.98a.464.464,0,0,1,.059-.293.693.693,0,0,1,.308-.044l3.442.059h4.028l2.974-.059q.234,0,.278.059a.547.547,0,0,1,.044.278l-.059,3.442v6.035l.059,3.442q0,.249-.059.293a.5.5,0,0,1-.264.044L-3.926-9.99H-8.643v6.445Q-6.372-4.16-4.38-4.893q-.073-.146-1.2-2.212a.585.585,0,0,1-.088-.234q0-.146.322-.278l1.714-.776A.888.888,0,0,1-3.3-8.5Q-3.149-8.5-3-8.276Zm-.718-12.583H-8.643v2.886h4.922Zm0,8.262v-2.856H-8.643V-12.6ZM5.918-5.479a14.636,14.636,0,0,0,2.153.146,1.2,1.2,0,0,0,.967-.308,1.553,1.553,0,0,0,.234-.981V-20.508H4.717V-3.135L4.775,2.08q0,.337-.322.337H1.89q-.234,0-.278-.073a.458.458,0,0,1-.044-.264l.059-5.962V-17.095L1.567-23.13q0-.234.059-.278a.5.5,0,0,1,.264-.044l3.223.059H8.848l3.179-.059q.249,0,.293.059a.5.5,0,0,1,.044.264L12.3-18.281v7.617l.088,4.7a4.08,4.08,0,0,1-.776,2.827,2.748,2.748,0,0,1-1.362.791,12.145,12.145,0,0,1-2.578.19q-.718,0-.835-.132a2.152,2.152,0,0,1-.205-.791A7.713,7.713,0,0,0,5.918-5.479ZM27.384-1.23a.477.477,0,0,1-.051.286.44.44,0,0,1-.271.051H24.894q-.293,0-.293-.337V-2.549H21.832V-.176q0,.322-.293.322H19.313q-.234,0-.278-.059a.5.5,0,0,1-.044-.264l.059-9.243v-6.533l-.059-7.207q0-.234.059-.278a.547.547,0,0,1,.278-.044l2.563.059h2.593l2.578-.059q.234,0,.278.059a.5.5,0,0,1,.044.264l-.059,6.064v6.87ZM21.832-5.273H24.6v-6.489H21.832ZM24.6-20.7H21.832v6.211H24.6Zm7.983,7.441-4.028.059q-.264,0-.308-.073a.547.547,0,0,1-.044-.278v-2.08q0-.234.059-.278a.591.591,0,0,1,.293-.044l4.028.059h2.153v-3.091H33.331l-3.779.059a.534.534,0,0,1-.322-.059.547.547,0,0,1-.044-.278v-2.095q0-.249.073-.308a.591.591,0,0,1,.293-.044l3.779.059h1.406a31.375,31.375,0,0,0-.205-3.4q1.509.044,3.091.22.483.044.483.293a2.356,2.356,0,0,1-.19.63,9.076,9.076,0,0,0-.146,2.256h2.007l3.809-.059q.249,0,.293.059a.591.591,0,0,1,.044.293v2.095q0,.249-.059.293a.547.547,0,0,1-.278.044l-3.809-.059H37.77v3.091h3.179l4.028-.059a.5.5,0,0,1,.308.059.5.5,0,0,1,.044.264v2.08a.5.5,0,0,1-.059.308.591.591,0,0,1-.293.044l-4.028-.059Zm.117,5.64-4,.059q-.264,0-.308-.059a.5.5,0,0,1-.044-.264V-9.99q0-.234.059-.278a.591.591,0,0,1,.293-.044l4,.059h5.9a25.537,25.537,0,0,0-.205-2.637q1.875.1,3.018.264.513.1.513.337a1.255,1.255,0,0,1-.146.513,4.559,4.559,0,0,0-.146,1.523l3-.059a.5.5,0,0,1,.308.059.5.5,0,0,1,.044.264v2.109a.44.44,0,0,1-.051.271.514.514,0,0,1-.3.051q-.044,0-.4-.015-1.172-.029-2.607-.044v2.974l.029,3.691A2.907,2.907,0,0,1,40.611,1.6a7.7,7.7,0,0,1-3.9.659,1.627,1.627,0,0,1-.864-.132,1.973,1.973,0,0,1-.278-.776,6.973,6.973,0,0,0-.894-2.183q1.392.117,2.93.117,1,0,1-.937V-7.617Zm.117.864A23.783,23.783,0,0,1,35.572-3.3a.494.494,0,0,1,.117.249q0,.132-.264.322l-1.831,1.26a.906.906,0,0,1-.352.176q-.117,0-.249-.205a26.091,26.091,0,0,0-2.637-3.691.454.454,0,0,1-.146-.249q0-.117.293-.293l1.685-1.055a.748.748,0,0,1,.337-.132A.492.492,0,0,1,32.818-6.753ZM69.445-5.215q1.084.088,1.89.088t.806-.879V-7.441H67.834v.806l.059,3.486a.514.514,0,0,1-.051.3.406.406,0,0,1-.256.051H65.373q-.249,0-.293-.059a.591.591,0,0,1-.044-.293l.059-3.486v-.806H61.2V-6.3l.059,3.53a.477.477,0,0,1-.051.286.44.44,0,0,1-.271.051h-2.2a.5.5,0,0,1-.308-.059.547.547,0,0,1-.044-.278l.059-3.5v-8.437l-.059-3.574q0-.234.059-.278a.591.591,0,0,1,.293-.044l4,.059h1.611a24.854,24.854,0,0,0-2.578-1.743q-.176-.132-.176-.234t.234-.293l1.479-1H62.194l-3.926.059q-.337,0-.337-.293v-2.007a.534.534,0,0,1,.059-.322.547.547,0,0,1,.278-.044l3.926.059H71.1a2.43,2.43,0,0,0,.776-.088,1.24,1.24,0,0,1,.454-.117q.278,0,1.23.864.923.894.923,1.289t-.513.571a3.5,3.5,0,0,0-1.143.747,40.022,40.022,0,0,1-3.267,2.549h1.113l4.043-.059a.464.464,0,0,1,.293.059.5.5,0,0,1,.044.264L75-14.429v4.614l.059,4.263a3.1,3.1,0,0,1-.747,2.373,5.135,5.135,0,0,1-3.062.718,1.814,1.814,0,0,1-.82-.1,1.621,1.621,0,0,1-.205-.586A4.547,4.547,0,0,0,69.445-5.215ZM67.834-9.727h4.307v-2.124H67.834Zm4.307-6.5H67.834v2.124h4.307ZM61.2-14.106h3.9V-16.23H61.2Zm0,4.38h3.9v-2.124H61.2Zm8.7-12.085H63.879A25.045,25.045,0,0,1,66.9-19.438,29.19,29.19,0,0,0,69.9-21.812ZM77.341-1.919A5.586,5.586,0,0,0,76.535.454q-.117.747-.293.864a1.878,1.878,0,0,1-.82.117q-5.288.337-10.649.337T57.727.938A6.719,6.719,0,0,1,54.694-1.8L51.838.879a7.1,7.1,0,0,0-.6.586.5.5,0,0,1-.425.308q-.22,0-.425-.4a27.923,27.923,0,0,1-1.216-2.812A18.109,18.109,0,0,0,50.9-2.4a14.284,14.284,0,0,0,2.314-1.86v-6.694h-1.26l-2.095.073q-.264,0-.322-.073a.591.591,0,0,1-.044-.293v-2.285q0-.234.073-.278a.591.591,0,0,1,.293-.044l2.095.059H53.7l2.153-.059q.249,0,.293.059a.5.5,0,0,1,.044.264l-.059,2.856v6.387A5.164,5.164,0,0,0,58.679-1.8a16.966,16.966,0,0,0,5.64.63A109.08,109.08,0,0,0,77.341-1.919Zm-24.814-22.1a22.39,22.39,0,0,1,3.691,4.409.575.575,0,0,1,.117.249q0,.117-.293.352l-1.685,1.289a1.192,1.192,0,0,1-.381.205q-.1,0-.249-.234a22.144,22.144,0,0,0-3.589-4.687q-.161-.132-.161-.22,0-.117.278-.293l1.611-1.1a.815.815,0,0,1,.366-.161Q52.351-24.214,52.526-24.023Z" transform="translate(180 243)" fill="#fff"/>
    <g id="Group_2" data-name="Group 2" transform="translate(72 119.084)">
      <g id="Group_1" data-name="Group 1" clip-path="url(#clip-path)">
        <path id="Path_1" data-name="Path 1" d="M310.794,35.324c4.085-3.722,9.234-5.2,14.354-6.706,1.729-.51,3.512-.838,5.245-1.539a9.538,9.538,0,0,0-8.45-.67c-4.871,1.7-9.579,3.881-14.3,5.978-4.11,1.824-8.048,4.07-12.243,5.656-5.145,1.944-8.641.826-10.743-2.8a6.162,6.162,0,0,1-.309-1.029c9.351,1.012,16.652-4.761,24.555-6.6,0-2.094-.328-3.912.065-5.56.956-4.009.677-4.745-3.434-5.924,2.252-2.268,4.888-2.284,7.494-1.471,4.663,1.455,7.38,4.635,7.675,10.135,2.588-.516,5.053-.952,7.492-1.5,5.291-1.2,10.53-2.672,15.864-3.621a10.7,10.7,0,0,1,10.522,3.444c-4.327,3.428-9.3,4.506-14.289,5.445-5.669,1.065-11.352,2.085-17.056,2.934-2.3.342-2.962,1.415-2.714,3.553a38.288,38.288,0,0,1,.029,4.224c3.584-.978,6.876-2.235,10.275-2.686,2.509-.333,5.178.275,7.733.716a2.379,2.379,0,0,1,1.358,1.9,155.2,155.2,0,0,1-3,15.678c-1.983,7.241-7.127,6.762-12.428,4.022-1.816-.939-3.311-2.5-5.258-4.008-.173,9.1,3.54,18.168-2.046,26.442-3.146-1.412-4.594-4.534-4.146-8.972.45-4.463,1.258-8.893,1.637-13.36.258-3.052.049-6.144.049-9.41-3.355.417-4.916,2.182-6.253,4.159-1.186,1.755-2.138,3.669-3.331,5.42a7.285,7.285,0,0,1-6.745,3.533c-1.154-8.786.812-16.492,6.821-22.923a49.157,49.157,0,0,1,5.673-4.553c-.467.792-.972,1.567-1.4,2.383-1.319,2.539-2.7,5.053-3.851,7.667a7.135,7.135,0,0,0-.056,2.753,39.617,39.617,0,0,1,5.109-2c2.211-.518,3.8-1.191,3.338-3.962a8.14,8.14,0,0,1,.518-2.976c.83-3.519-.01-4.374-3.755-3.78m8.884,17.119h10.109c.153-2.809.459-5.493.346-8.16-.034-.8-1.416-2.305-1.875-2.2a47.037,47.037,0,0,0-7.4,2.508,2.777,2.777,0,0,0-1.445,1.965,53.124,53.124,0,0,0,.267,5.885" transform="translate(-138.904 -6.926)" fill="#fff"/>
        <path id="Path_2" data-name="Path 2" d="M152.55,49.7a22.134,22.134,0,0,1,2.384,1.631c3.04,2.7,6.873,1.621,7.269-2.447.338-3.465-.351-7.032-.615-10.551-.062-.821-.24-1.634-.417-2.791,3.33.662,5.5,2.252,6.738,5.08,1.8,4.1,1.683,8.409,1.329,12.744-.288,3.533-.526,7.07-.84,11.339,1.206-1.026,1.966-1.6,2.639-2.257,7.339-7.195,14.5-14.581,23.3-20.109a3.511,3.511,0,0,0,1.1-2.537c.115-2.793-.215-5.617.068-8.384.137-1.334,1.262-2.567,1.939-3.846,1.144.882,2.638,1.543,3.363,2.688,1.832,2.9,3.318,6.013,5.057,9.253-7.493,7.219-7.731,17.832-11,27.406,3.55-.26,6.731-.712,9.906-.676,4.774.054,5.377,1.076,3.839,5.517-1.464,4.229-1.464,4.229-6.021,4.228H190.1c-1.165-5.25.287-9.936,1.642-14.657,1.214-4.226,2.284-8.494,3.385-12.752a8.448,8.448,0,0,0,.016-1.766c-4.957,2.473-8.538,6.146-11.851,10.1-5.334,6.369-10.553,12.835-15.933,19.166a25.507,25.507,0,0,1-3.99,3.139c-1.828,1.424-3.188.614-4.249-.985-2.708-4.075-2.276-6.788,1.474-10.031a12.4,12.4,0,0,0,1.615-1.625c2.024-2.551,1.75-3.558-.878-5.494a59.466,59.466,0,0,1-7.362-6.139c-1.137-1.163-1.515-3.064-2.236-4.632l.816-.616" transform="translate(-74.123 -13.47)" fill="#fff"/>
        <path id="Path_3" data-name="Path 3" d="M0,20.69c5.9-.251,10.78-1.766,14.777-5.432,4.77-4.375,4.2-8.667-1.451-11.767-.437-.239-.883-.461-1.329-.693C13.519.163,16.387-.615,20.246.481c5.146,1.462,7.344,4.171,7.218,9.225,1.154-.171,2.286-.3,3.4-.513,3.465-.672,4.392.248,3.91,4.095-6.52.748-12.471,2.765-16.758,7.95q.19.463.38.924c1.234-.37,2.469-.737,3.7-1.111a34.709,34.709,0,0,1,5.1-1.505c3.373-.469,4.6,1.107,4.169,4.5a52.7,52.7,0,0,0-.05,6.483l-5.708,3.062c1.575,2.617,4.305,1.266,6.468,2.246C25.907,43.013,27.667,51.9,26.354,60.1c-.094.585-.061,1.192-.182,1.768-.137.65-.38,1.278-.805,2.654a42.423,42.423,0,0,1-4.359-2.228c-.742-.488-1.149-1.458-1.788-2.134-2.115-2.241-4.373-1.893-6.032.784-.869,1.4-1.657,3.185-2.972,3.911-2.52,1.391-5.632-.422-6.229-3.348a35.7,35.7,0,0,1-.373-4.665c1.706-.9,2.973-1.386,4.743-.312.793.481,2.642-.437,3.849-1.042,1.8-.9,3.457-2.092,5.174-3.16l.752.917-2.944,3.74a15.106,15.106,0,0,1,2.594.2c2.578.683,4.054-.518,3.8-3.167-.212-2.229-.4-4.459-.636-7.063A47.466,47.466,0,0,1,15.9,49.378a46.275,46.275,0,0,1-7.973,2.193c-.893.142-2.723-.983-2.844-1.734-.168-1.034.707-2.4,1.461-3.369a11.6,11.6,0,0,1,2.736-1.922l-1.11,4.868.816.317C14.636,46.413,22.174,45.2,23.46,36.349c-3.7.543-6.985,2.661-10.983.932,3.413-2.185,2.1-4.507.792-7.1-.815-1.621-.854-3.631-1.336-5.909-3.746-.125-9,2.415-11.933-3.578M20.367,32.307c3.667-3.313,4.284-6.413,1.647-7.89-2.973,5.49-3.034,5.757-1.647,7.89" transform="translate(0 0)" fill="#fff"/>
        <path id="Path_4" data-name="Path 4" d="M73.555,63.807c3.684-6.537,5.683-13.209,4.567-20.6A10.31,10.31,0,0,0,71.24,34.39c1.162-1.734,2.089-3.38,3.272-4.817,1.451-1.762,3.306-3.21,4.644-5.042,2.266-3.1,1.928-5.183-.9-7.785-.744-.686-1.575-1.279-2.756-2.228,1.01-.381,1.832-1.01,2.536-.9,2.848.45,5.949.68,7.176,3.995a3.96,3.96,0,0,1,.211,2.641,66.572,66.572,0,0,1-4.363,8.775c-2.525,4-2.768,6.83-.374,10.037.8,1.07,1.542,1.432,2.752.66q3.97-2.53,8.008-4.955c3.926-2.353,7.958-4.305,12.739-2.77a10.11,10.11,0,0,1,1.229.731c-1.462,1.145-2.575,2.482-4,3.032-2.91,1.128-5.98,1.849-8.994,2.7-.977.277-2,.4-2.974.681-5.755,1.648-6.128,2.479-6.445,8.42a56.542,56.542,0,0,1-1.941,12.723c-1.453,4.986-2.7,5.287-7.514,3.514" transform="translate(-34.801 -6.646)" fill="#fff"/>
        <path id="Path_5" data-name="Path 5" d="M102.951,69.156c3.562,1.359,4.947,4.013,5.831,7.011,1.749,5.934,1.074,11.94.364,17.928-.368,3.109-.913,6.2-1.3,9.305-.319,2.589-1.7,3.373-4.11,2.091-1.32-.7-2.519-1.628-3.856-2.508,6.386-5.221,5.736-12.423,5.168-19.461-.38-4.7-1.346-9.35-2.1-14.366" transform="translate(-48.794 -33.783)" fill="#fff"/>
        <path id="Path_6" data-name="Path 6" d="M59.344,88.8c2.475-.907,4.844-1.167,6.87.485.786.64,1,1.985,1.467,3.009a9.781,9.781,0,0,1-2.927,1.045c-2.475.045-4.415-1.645-5.411-4.539" transform="translate(-28.99 -43.028)" fill="#fff"/>
      </g>
    </g>
    <path id="Path_435" data-name="Path 435" d="M107,1114H261" transform="translate(-4.5 -909)" fill="none" stroke="#fff" stroke-width="2"/>
  </g>
</svg>
